<?xml version="1.0" encoding="utf-8"?>
<!-- Generator: Adobe Illustrator 19.2.1, SVG Export Plug-In . SVG Version: 6.00 Build 0)  -->
<svg version="1.1" id="Laag_1" xmlns="http://www.w3.org/2000/svg" xmlns:xlink="http://www.w3.org/1999/xlink" x="0px" y="0px"
	 viewBox="0 0 75 75" style="enable-background:new 0 0 75 75;" xml:space="preserve">
<style type="text/css">
	.st0{fill:none;stroke:#EC6E6B;stroke-width:2.55;stroke-miterlimit:10;}
	.st1{filter:url(#Adobe_OpacityMaskFilter);}
	.st2{fill:#F5F5F4;}
	.st3{mask:url(#SVGID_1_);}
	.st4{fill:#EC6E6B;}
</style>
<circle class="st0" cx="37.5" cy="37.5" r="36.3"/>
<defs>
	<filter id="Adobe_OpacityMaskFilter" filterUnits="userSpaceOnUse" x="15.4" y="16.4" width="44.2" height="44.2">
		<feFlood  style="flood-color:white;flood-opacity:1" result="back"/>
		<feBlend  in="SourceGraphic" in2="back" mode="normal"/>
	</filter>
</defs>
<mask maskUnits="userSpaceOnUse" x="15.4" y="16.4" width="44.2" height="44.2" id="SVGID_1_">
	<g class="st1">
		<path class="st2" d="M59.5,47c0,2.7-2.2,4.8-4.8,4.8H25.9c-2.7,0-4.8-2.1-4.8-4.8V18.2c0-2.7,2.2-4.8,4.8-4.8h28.8
			c2.7,0,4.8,2.2,4.8,4.8V47z"/>
	</g>
</mask>
<g class="st3">
	<g>
		<g>
			<polygon class="st4" points="59.6,22.4 53.6,22.4 53.6,16.4 50.6,16.4 50.6,22.4 44.6,22.4 44.6,25.4 50.6,25.4 50.6,31.4 
				53.6,31.4 53.6,25.4 59.6,25.4 			"/>
		</g>
		<g>
			<path class="st4" d="M38.2,41.7c-1.2-0.9-3.8-2.8-3.8-4c0-1.5,0.4-2.2,2.6-3.9c2.3-1.8,3.8-4.1,3.8-7c0-3.1-1.3-6-3.7-7.4h3.4
				l2.9-3.1c0,0-9.6,0-13,0c-6.6,0-12.1,4.9-12.1,10.2c0,5.5,3.6,9.8,9.8,9.8c0.4,0,0.9,0,1.3-0.1c-0.4,0.8-0.7,1.6-0.7,2.5
				c0,1.5,0.8,2.4,1.9,3.4c-0.8,0-1.5,0-2.4,0c-7.6,0-12.9,5.2-12.9,10.2c0,4.9,6.4,8,13.9,8c8.6,0,13.9-4.9,13.9-9.8
				C43.2,46.8,42.4,44.8,38.2,41.7z M30.7,34.5c-3.5-0.1-6.8-3.3-7.4-7.9c-0.6-4.6,1.7-8.1,5.3-8c3.5,0.1,6.5,3.9,7.1,8.5
				C36.2,31.6,34.2,34.6,30.7,34.5z M29.3,58.4c-5.2,0-9-3.3-9-7.3c0-3.9,4.4-7.3,9.7-7.2c1.2,0,2.4,0.2,3.4,0.5
				c2.8,2,5.1,3.2,5.7,5.5c0.1,0.5,0.2,0.9,0.2,1.4C39.2,55.3,36.6,58.4,29.3,58.4z"/>
		</g>
	</g>
</g>
</svg>
