<?xml version="1.0" encoding="utf-8"?>
<!-- Generator: Adobe Illustrator 19.2.1, SVG Export Plug-In . SVG Version: 6.00 Build 0)  -->
<svg version="1.1" id="Laag_1" xmlns="http://www.w3.org/2000/svg" xmlns:xlink="http://www.w3.org/1999/xlink" x="0px" y="0px"
	 viewBox="0 0 25 25" style="enable-background:new 0 0 25 25;" xml:space="preserve">
<style type="text/css">
	.st0{fill:none;stroke:#FFFFFF;stroke-miterlimit:10;}
	.st1{clip-path:url(#SVGID_2_);fill:#FFFFFF;}
</style>
<circle class="st0" cx="12.5" cy="12.5" r="12"/>
<g>
	<defs>
		<rect id="SVGID_1_" x="6" y="6" width="13" height="13"/>
	</defs>
	<clipPath id="SVGID_2_">
		<use xlink:href="#SVGID_1_"  style="overflow:visible;"/>
	</clipPath>
	<path class="st1" d="M12.5,7.2c1.7,0,1.9,0,2.6,0c0.6,0,1,0.1,1.2,0.2c0.3,0.1,0.5,0.3,0.7,0.5c0.2,0.2,0.4,0.4,0.5,0.7
		c0.1,0.2,0.2,0.6,0.2,1.2c0,0.7,0,0.9,0,2.6c0,1.7,0,1.9,0,2.6c0,0.6-0.1,1-0.2,1.2c-0.1,0.3-0.3,0.5-0.5,0.7
		c-0.2,0.2-0.4,0.4-0.7,0.5c-0.2,0.1-0.6,0.2-1.2,0.2c-0.7,0-0.9,0-2.6,0c-1.7,0-1.9,0-2.6,0c-0.6,0-1-0.1-1.2-0.2
		c-0.3-0.1-0.5-0.3-0.7-0.5c-0.2-0.2-0.4-0.4-0.5-0.7c-0.1-0.2-0.2-0.6-0.2-1.2c0-0.7,0-0.9,0-2.6c0-1.7,0-1.9,0-2.6
		c0-0.6,0.1-1,0.2-1.2c0.1-0.3,0.3-0.5,0.5-0.7c0.2-0.2,0.4-0.4,0.7-0.5c0.2-0.1,0.6-0.2,1.2-0.2C10.6,7.2,10.8,7.2,12.5,7.2
		 M12.5,6c-1.8,0-2,0-2.7,0c-0.7,0-1.2,0.1-1.6,0.3C7.8,6.5,7.5,6.7,7.1,7.1C6.7,7.5,6.5,7.8,6.3,8.2C6.2,8.7,6.1,9.1,6,9.8
		c0,0.7,0,0.9,0,2.7c0,1.8,0,2,0,2.7c0,0.7,0.1,1.2,0.3,1.6c0.2,0.4,0.4,0.8,0.7,1.2c0.4,0.4,0.7,0.6,1.2,0.7
		c0.4,0.2,0.9,0.3,1.6,0.3c0.7,0,0.9,0,2.7,0c1.8,0,2,0,2.7,0c0.7,0,1.2-0.1,1.6-0.3c0.4-0.2,0.8-0.4,1.2-0.7
		c0.4-0.4,0.6-0.7,0.7-1.2c0.2-0.4,0.3-0.9,0.3-1.6c0-0.7,0-0.9,0-2.7c0-1.8,0-2,0-2.7c0-0.7-0.1-1.2-0.3-1.6
		c-0.2-0.4-0.4-0.8-0.7-1.2c-0.4-0.4-0.7-0.6-1.2-0.7c-0.4-0.2-0.9-0.3-1.6-0.3C14.5,6,14.3,6,12.5,6"/>
	<path class="st1" d="M12.5,9.2c-1.8,0-3.3,1.5-3.3,3.3c0,1.8,1.5,3.3,3.3,3.3c1.8,0,3.3-1.5,3.3-3.3C15.8,10.7,14.3,9.2,12.5,9.2
		 M12.5,14.7c-1.2,0-2.2-1-2.2-2.2c0-1.2,1-2.2,2.2-2.2c1.2,0,2.2,1,2.2,2.2C14.7,13.7,13.7,14.7,12.5,14.7"/>
	<path class="st1" d="M16.7,9c0,0.4-0.3,0.8-0.8,0.8c-0.4,0-0.8-0.3-0.8-0.8c0-0.4,0.3-0.8,0.8-0.8C16.4,8.3,16.7,8.6,16.7,9"/>
</g>
</svg>
