<?xml version="1.0" encoding="utf-8"?>
<!-- Generator: Adobe Illustrator 19.2.1, SVG Export Plug-In . SVG Version: 6.00 Build 0)  -->
<svg version="1.1" id="Laag_1" xmlns="http://www.w3.org/2000/svg" xmlns:xlink="http://www.w3.org/1999/xlink" x="0px" y="0px"
	 viewBox="0 0 75 75" style="enable-background:new 0 0 75 75;" xml:space="preserve">
<style type="text/css">
	.st0{fill:none;stroke:#EC6E6B;stroke-width:2.55;stroke-miterlimit:10;}
	.st1{fill:#EC6E6B;}
</style>
<circle class="st0" cx="37.5" cy="37.5" r="36.3"/>
<path id="twitter-4-icon_1_" class="st1" d="M52,30c0.5,10.5-7.3,22.1-21.2,22.1c-4.2,0-8.1-1.2-11.4-3.3c3.9,0.5,7.9-0.6,11-3.1
	c-3.3-0.1-6-2.2-7-5.2c1.2,0.2,2.3,0.2,3.4-0.1c-3.6-0.7-6.1-3.9-6-7.4c1,0.6,2.2,0.9,3.4,0.9C21,31.8,20,27.4,22,24
	c3.7,4.5,9.2,7.5,15.3,7.8c-1.1-4.7,2.4-9.1,7.3-9.1c2.1,0,4.1,0.9,5.4,2.4c1.7-0.3,3.3-1,4.7-1.8c-0.6,1.7-1.7,3.2-3.3,4.1
	c1.5-0.2,2.9-0.6,4.3-1.2C54.7,27.7,53.5,29,52,30z"/>
</svg>
