<?xml version="1.0" encoding="utf-8"?>
<!-- Generator: Adobe Illustrator 19.2.1, SVG Export Plug-In . SVG Version: 6.00 Build 0)  -->
<svg version="1.1" id="Laag_1" xmlns="http://www.w3.org/2000/svg" xmlns:xlink="http://www.w3.org/1999/xlink" x="0px" y="0px"
	 viewBox="0 0 101 101" style="enable-background:new 0 0 101 101;" xml:space="preserve">
<style type="text/css">
	.st0{fill:#FF6B6B;}
	.st1{fill:none;stroke:#97989F;stroke-miterlimit:10;}
</style>
<g>
	<path class="st0" d="M67.7,75.5H25.5V33.3h26.6c0.9,0,1.6,0.7,1.6,1.6s-0.7,1.6-1.6,1.6H28.6v35.9h35.9V48.9c0-0.9,0.7-1.6,1.6-1.6
		s1.6,0.7,1.6,1.6V75.5z"/>
	<path class="st0" d="M70.3,37.3l5.2-5.2l-6.6-6.6L47.2,47.1l-4.8,11.4l11.4-4.8L70.3,37.3L70.3,37.3L70.3,37.3z M71,32.1l-1.8,1.8
		l-2.2-2.2l1.9-1.9L71,32.1z M52.1,51.1l-3.8,1.6l1.6-3.8L64.8,34l2.2,2.2L52.1,51.1z"/>
</g>
<circle class="st1" cx="50.5" cy="50.5" r="50"/>
</svg>
