<?xml version="1.0" encoding="utf-8"?>
<!-- Generator: Adobe Illustrator 19.2.1, SVG Export Plug-In . SVG Version: 6.00 Build 0)  -->
<svg version="1.1" id="Laag_1" xmlns="http://www.w3.org/2000/svg" xmlns:xlink="http://www.w3.org/1999/xlink" x="0px" y="0px"
	 viewBox="0 0 101 101" style="enable-background:new 0 0 101 101;" xml:space="preserve">
<style type="text/css">
	.st0{fill:#FF6B6B;}
	.st1{fill:none;stroke:#97989F;stroke-miterlimit:10;}
</style>
<g>
	<path class="st0" d="M42.5,56.7c-0.9,0-1.6,0.7-1.6,1.6c0,2.2-1.8,4-4,4c-0.9,0-1.6,0.7-1.6,1.6c0,0.9,0.7,1.6,1.6,1.6
		c4,0,7.2-3.2,7.2-7.2C44.1,57.4,43.4,56.7,42.5,56.7z"/>
	<path class="st0" d="M68,58.3c0,2.2-1.8,4-4,4c-0.9,0-1.6,0.7-1.6,1.6c0,0.9,0.7,1.6,1.6,1.6c4,0,7.2-3.2,7.2-7.2
		c0-0.9-0.7-1.6-1.6-1.6S68,57.4,68,58.3z"/>
	<path class="st0" d="M75.1,53.8L75.1,53.8l-8.4-18.6c-0.1-0.2-0.2-0.4-0.2-0.5v-0.1l0,0c-1.4-2.5-4-4.1-6.8-4.1
		c-3.8,0-7,2.9-7.5,6.5c-1.1-0.2-2.2-0.2-3.3,0c-0.5-3.7-3.7-6.5-7.5-6.5c-2.8,0-5.4,1.6-6.8,4.1l0,0v0.1c-0.1,0.2-0.2,0.3-0.2,0.5
		L26,53.7v0.1c-0.6,1.4-1,2.9-1,4.5c0,6.6,5.3,12,12,12s12-5.3,12-12l0,0v-8.5c1-0.2,2.2-0.2,3.2,0v8.5l0,0c0,6.6,5.3,12,12,12
		s12-5.3,12-12C76,56.7,75.7,55.1,75.1,53.8z M37,67.1c-4.9,0-8.8-3.9-8.8-8.8s3.9-8.8,8.8-8.8s8.8,3.9,8.8,8.8S41.8,67.1,37,67.1z
		 M37,46.4c-1.7,0-3.2,0.3-4.6,1l4.9-10.9c0-0.1,0.1-0.2,0.2-0.3l0,0c0.8-1.5,2.3-2.5,3.9-2.5c2.4,0,4.4,2,4.4,4.4v1l0,0v9.6l0,0
		v1.6C43.6,47.9,40.4,46.4,37,46.4z M48.9,46.5v-6.3c1-0.2,2.2-0.2,3.2,0v6.3C51.1,46.4,49.9,46.4,48.9,46.5z M55.3,38
		c0-2.4,2-4.4,4.4-4.4c1.6,0,3.1,1,3.9,2.5c0.1,0.1,0.1,0.2,0.2,0.4l4.9,10.8c-1.4-0.6-2.9-1-4.6-1c-3.4,0-6.6,1.5-8.8,3.8V38z
		 M64,67.1c-4.9,0-8.8-3.9-8.8-8.8s3.9-8.8,8.8-8.8s8.8,3.9,8.8,8.8S68.9,67.1,64,67.1z"/>
</g>
<circle class="st1" cx="50.5" cy="50.5" r="50"/>
</svg>
