<?xml version="1.0" encoding="utf-8"?>
<!-- Generator: Adobe Illustrator 19.2.1, SVG Export Plug-In . SVG Version: 6.00 Build 0)  -->
<svg version="1.1" id="Laag_1" xmlns="http://www.w3.org/2000/svg" xmlns:xlink="http://www.w3.org/1999/xlink" x="0px" y="0px"
	 viewBox="0 0 101 101" style="enable-background:new 0 0 101 101;" xml:space="preserve">
<style type="text/css">
	.st0{fill:none;stroke:#97989F;stroke-miterlimit:10;}
	.st1{fill:#FF6B6B;}
</style>
<circle class="st0" cx="50.3" cy="50.5" r="50"/>
<path class="st1" d="M62.1,46.8l13.2-13.2l-8.3-8.3l-2,2L64.7,27c-2.3-2.3-5.9-2.3-8.2,0L45.4,38.1c-0.6,0.6-0.6,1.6,0,2.2
	c0.3,0.3,0.7,0.5,1.1,0.5s0.8-0.2,1.1-0.5l11.1-11.1c1-1,2.7-1,3.8,0l0.4,0.3l-9,9c0,0,0,0-0.1,0c0,0,0,0,0,0.1L34.2,58.1l1,1
	c-0.2,0-0.5,0-0.7,0l0,0c-1.9,0-3.7,0.7-5,2c-0.2,0.2-0.4,0.5-0.6,0.7c-0.5,0.6-0.9,1.2-1.1,2c-1.6,3.7-2.3,9.2-2.3,9.5l-0.2,2
	l2-0.2c0.2,0,5.9-0.8,9.6-2.4c0.6-0.2,1.2-0.5,1.8-0.9c0.3-0.2,0.5-0.5,0.8-0.6c1.3-1.3,2-3.1,2-5c0-0.2,0-0.5,0-0.7l1,1L62.1,46.8
	C62.1,46.9,62.1,46.9,62.1,46.8L62.1,46.8z M37.4,68.8c-0.1,0.1-0.2,0.2-0.4,0.3c-0.3,0.2-0.7,0.5-1,0.5l-0.1,0.1
	c-1.2,0.5-2.6,0.9-3.9,1.2l2.7-2.7c0.6-0.6,0.6-1.6,0-2.2s-1.6-0.6-2.2,0l-2.7,2.7c0.3-1.3,0.7-2.7,1.2-3.8l0.1-0.2
	c0.2-0.4,0.3-0.8,0.6-1.2c0.1-0.2,0.2-0.2,0.3-0.3c0.7-0.7,1.7-1.2,2.7-1.2s2,0.4,2.7,1.2c0.7,0.7,1.2,1.7,1.2,2.7
	C38.5,67.1,38.1,68.1,37.4,68.8z M70.9,33.6L61,43.5l-3.9-3.9l10-9.8L70.9,33.6z M38.7,58l16.2-16.2l3.9,3.9L42.6,62L38.7,58z"/>
</svg>
