<?xml version="1.0" encoding="utf-8"?>
<!-- Generator: Adobe Illustrator 19.2.1, SVG Export Plug-In . SVG Version: 6.00 Build 0)  -->
<svg version="1.1" id="Laag_1" xmlns="http://www.w3.org/2000/svg" xmlns:xlink="http://www.w3.org/1999/xlink" x="0px" y="0px"
	 viewBox="0 0 101 101" style="enable-background:new 0 0 101 101;" xml:space="preserve">
<style type="text/css">
	.st0{fill:none;stroke:#3F717A;stroke-width:3.7091;stroke-miterlimit:10;}
	.st1{fill:none;stroke:#3F717A;stroke-width:3.7091;stroke-linecap:round;stroke-miterlimit:10;}
	.st2{fill:none;stroke:#97989F;stroke-miterlimit:10;}
</style>
<g>
	<path class="st0" d="M53.6,22.7c-13,0-22.3,4.8-22.3,14.8c0,5.4,0,8.3,0,9.3c0,0.9-1.9,5.6-3.7,7.4c-0.8,0.8-1.2,2.3,0.9,2.9
		c1.7,0.5,2.3,0.3,2.5,1.6c0.2,1.2-0.5,2.6,0.5,3c1,0.4,0.1,1.6,1.2,2.5c0.7,0.6-0.9,4.8,3.1,4.8c2,0,2.2,0,4.4,0
		c2.2,0,2.3,1.6,2.3,3.7c0,2.2-1.9,5.6-1.9,5.6h26c0,0-3.7-3.8-3.7-7.4c0-5.6,11.1-14.3,11.1-29.7C74,26.6,62.9,22.7,53.6,22.7z"/>
	<polyline class="st1" points="53,35.7 48,43.1 57.3,43.1 52.7,50 	"/>
	<path class="st0" d="M60.8,34c-1.9-2.4-4.8-3.9-8-3.9c-3.2,0-6.1,1.5-8,3.8c-3.5,0.6-6.1,3.6-6.1,7.3c0,4.1,3.3,7.4,7.4,7.4
		c0.2,0,0.5,0,0.7-0.1c1.7,1.2,3.7,1.9,6,1.9c2.2,0,4.3-0.7,5.9-1.9c0.1,0,0.3,0,0.4,0c4.1,0,7.4-3.3,7.4-7.4
		C66.6,37.7,64.1,34.7,60.8,34z"/>
</g>
<circle class="st2" cx="50.5" cy="50.5" r="50"/>
</svg>
