<?xml version="1.0" encoding="utf-8"?>
<!-- Generator: Adobe Illustrator 19.2.1, SVG Export Plug-In . SVG Version: 6.00 Build 0)  -->
<svg version="1.1" id="Laag_1" xmlns="http://www.w3.org/2000/svg" xmlns:xlink="http://www.w3.org/1999/xlink" x="0px" y="0px"
	 viewBox="0 0 101 101" style="enable-background:new 0 0 101 101;" xml:space="preserve">
<style type="text/css">
	.st0{fill:none;stroke:#97989F;stroke-miterlimit:10;}
	.st1{fill:none;stroke:#3F717A;stroke-width:3.3331;stroke-linecap:round;stroke-miterlimit:10;}
	.st2{fill:none;stroke:#3F717A;stroke-width:3.3331;stroke-miterlimit:10;}
	.st3{fill:none;stroke:#3F717A;stroke-width:3.3331;stroke-linecap:round;stroke-linejoin:round;stroke-miterlimit:10;}
</style>
<circle class="st0" cx="50.5" cy="50.7" r="50"/>
<g>
	<g>
		<path class="st1" d="M38.8,32.5v9.8c-2.5,0-2.8,3.2-2.8,3.9c0,0.8,0.6,4.4,3.1,4.4c0,0,0,0,0,0c1,3.8,3.2,6.9,6,8.6"/>
		<path class="st1" d="M55.2,59.2c2.8-1.7,4.9-4.8,6-8.6c2.5,0,3.1-3.6,3.1-4.4c0-0.8,0.4-3.9-2.1-3.9v-9.7"/>
	</g>
	<path class="st2" d="M43.5,58v2.7c0,1.7,0.8,4.1-8.3,5.8c-9.7,1.8-9.7,9.2-9.7,9.2h50c0,0,0-7.2-10.4-9.2c-8.9-1.7-8.3-4.2-8.3-5.8
		l0-3.3"/>
	<polyline class="st3" points="37.2,66.1 50.5,75.7 63.8,66.2 	"/>
	<polygon class="st3" points="50.5,34 27.2,29 50.5,25.7 73.8,29 	"/>
	<polyline class="st1" points="38.8,37.3 50.5,39 62.2,37.3 	"/>
	<line class="st1" x1="28.8" y1="29.3" x2="28.8" y2="49"/>
</g>
</svg>
