<?xml version="1.0" encoding="utf-8"?>
<!-- Generator: Adobe Illustrator 19.2.1, SVG Export Plug-In . SVG Version: 6.00 Build 0)  -->
<svg version="1.1" id="Laag_1" xmlns="http://www.w3.org/2000/svg" xmlns:xlink="http://www.w3.org/1999/xlink" x="0px" y="0px"
	 viewBox="0 0 101 101" style="enable-background:new 0 0 101 101;" xml:space="preserve">
<style type="text/css">
	.st0{fill:#3F717A;}
	.st1{fill:none;stroke:#97989F;stroke-miterlimit:10;}
</style>
<g>
	<g>
		<path class="st0" d="M50.5,74.8c-13.8,0-25-11.3-25-25c0-6.6,2.6-13,7.3-17.7c0.6-0.6,1.6-0.6,2.2,0c0.6,0.6,0.6,1.6,0,2.2
			c-4.1,4.1-6.4,9.6-6.4,15.5c0,12,9.8,21.9,21.9,21.9s21.9-9.8,21.9-21.9c0-11.6-9-21-20.3-21.8v9.3c0,0.9-0.7,1.6-1.6,1.6
			s-1.6-0.7-1.6-1.6V24.8h1.6c13.8,0,25,11.3,25,25S64.2,74.8,50.5,74.8z"/>
		<g>
			<path class="st0" d="M48.4,51.9l-9.9-12c-0.5-0.7-0.5-1.6,0.2-2.2c0.6-0.5,1.4-0.5,2,0l12,9.9c1.2,1.1,1.5,3,0.4,4.2
				c-1.1,1.2-3,1.5-4.2,0.4C48.6,52.3,48.5,52.1,48.4,51.9z"/>
		</g>
	</g>
	<circle class="st1" cx="50.5" cy="50.5" r="50"/>
</g>
</svg>
