<?xml version="1.0" encoding="utf-8"?>
<!-- Generator: Adobe Illustrator 19.2.1, SVG Export Plug-In . SVG Version: 6.00 Build 0)  -->
<svg version="1.1" id="Laag_1" xmlns="http://www.w3.org/2000/svg" xmlns:xlink="http://www.w3.org/1999/xlink" x="0px" y="0px"
	 viewBox="0 0 51.2 25.2" style="enable-background:new 0 0 51.2 25.2;" xml:space="preserve">
<style type="text/css">
	.st0{fill:#FFFFFF;}
	.st1{fill:none;stroke:#FFFFFF;stroke-miterlimit:10;}
</style>
<g>
	<path class="st0" d="M15.6,14.8c0,2.2-1.7,2.9-4.1,2.9H8.7V7.4h2.4c2.5,0,4,0.8,4,2.6c0,1.3-0.9,2.1-1.9,2.3
		C14.4,12.5,15.6,13.1,15.6,14.8z M10.1,8.6v3.3h1.6c1.2,0,2.1-0.6,2.1-1.7c0-1.3-0.9-1.6-2.4-1.6H10.1z M14.1,14.8
		c0-1.5-1.1-1.9-2.3-1.9h-1.7v3.7h1.4C13,16.6,14.1,16.3,14.1,14.8z"/>
	<path class="st0" d="M19.2,16.5h4.2l-0.2,1.2h-5.5V7.4h1.4V16.5z"/>
	<path class="st0" d="M33.2,12.6c0,3.4-1.8,5.3-4.4,5.3c-2.6,0-4.4-1.9-4.4-5.3c0-3.4,1.8-5.4,4.4-5.4C31.4,7.2,33.2,9.1,33.2,12.6z
		 M26,12.6c0,3,1.2,4.2,2.8,4.2c1.7,0,2.8-1.2,2.8-4.2c0-3-1.1-4.2-2.8-4.2C27.1,8.4,26,9.6,26,12.6z"/>
	<path class="st0" d="M42.4,8.4l-0.8,0.9c-0.7-0.6-1.3-0.8-2.3-0.8c-1.5,0-3,1.1-3,4.2c0,3,1,4.2,2.8,4.2c0.7,0,1.4-0.1,2-0.5v-3.1
		h-1.8L39.1,12h3.4v5c-0.9,0.6-2,0.9-3.5,0.9c-2.6,0-4.2-1.8-4.2-5.4c0-3.5,2.1-5.3,4.5-5.3C40.7,7.2,41.5,7.7,42.4,8.4z"/>
</g>
<g>
	<path class="st1" d="M50.6,13.6c0,6-5,11-11,11h-28c-6,0-11-5-11-11v-2c0-6.1,4.9-11,11-11h28c6,0,11,4.9,11,11V13.6z"/>
</g>
</svg>
