<?xml version="1.0" encoding="utf-8"?>
<!-- Generator: Adobe Illustrator 19.2.1, SVG Export Plug-In . SVG Version: 6.00 Build 0)  -->
<svg version="1.1" id="Laag_1" xmlns="http://www.w3.org/2000/svg" xmlns:xlink="http://www.w3.org/1999/xlink" x="0px" y="0px"
	 viewBox="0 0 51.2 25.2" style="enable-background:new 0 0 51.2 25.2;" xml:space="preserve">
<style type="text/css">
	.st0{fill:none;stroke:#FF6B6B;stroke-miterlimit:10;}
	.st1{fill:#FF6B6B;}
</style>
<g>
	<path class="st0" d="M50.6,13.6c0,6.1-5,11-11,11h-28c-6.1,0-11-4.9-11-11v-2c0-6,4.9-11,11-11h28c6,0,11,4.9,11,11V13.6z"/>
</g>
<g>
	<path class="st1" d="M17.4,12.2c0,3.4-1.8,5.3-4.4,5.3c-2.6,0-4.4-1.9-4.4-5.3c0-3.4,1.8-5.4,4.4-5.4C15.6,6.9,17.4,8.8,17.4,12.2z
		 M10.1,12.3c0,3,1.2,4.2,2.8,4.2c1.7,0,2.9-1.2,2.9-4.2c0-3-1.1-4.2-2.9-4.2C11.3,8.1,10.1,9.3,10.1,12.3z"/>
	<path class="st1" d="M22.9,17.4h-1.5L18,7.1h1.5l2.6,8.8l2.6-8.8h1.4L22.9,17.4z"/>
	<path class="st1" d="M33.2,8.2h-4v3.4h3.5v1.1h-3.5v3.5h4.3v1.1h-5.7V7.1h5.6L33.2,8.2z"/>
	<path class="st1" d="M38.8,13h-1.6v4.4h-1.4V7.1h2.7c2.6,0,3.9,1,3.9,2.9c0,1.5-0.8,2.3-2.2,2.8l2.8,4.6h-1.7L38.8,13z M38.7,11.9
		c1.4,0,2.3-0.5,2.3-1.9c0-1.3-0.7-1.8-2.4-1.8h-1.3v3.8H38.7z"/>
</g>
</svg>
