<?xml version="1.0" encoding="utf-8"?>
<!-- Generator: Adobe Illustrator 19.2.1, SVG Export Plug-In . SVG Version: 6.00 Build 0)  -->
<svg version="1.1" id="Laag_1" xmlns="http://www.w3.org/2000/svg" xmlns:xlink="http://www.w3.org/1999/xlink" x="0px" y="0px"
	 viewBox="0 0 619.2 670.3" style="enable-background:new 0 0 619.2 670.3;" xml:space="preserve">
<style type="text/css">
	.st0{fill:#FCD7B7;}
	.st1{fill:#F7B69D;}
	.st2{fill:#F2C7A7;}
	.st3{fill:#FFFFFF;}
	.st4{fill:#E6E8E8;}
	.st5{fill:none;stroke:#C7C6C5;stroke-width:0.4483;stroke-miterlimit:10;}
	.st6{fill:#E5F3F7;}
	.st7{fill:#9C9B9B;}
	.st8{fill:#ECECEC;}
	.st9{fill:#CD1D1D;}
	.st10{fill:none;stroke:#CD1D1D;stroke-width:1.44;stroke-miterlimit:10;}
	.st11{fill:#ED6F6C;}
	.st12{fill:#E9AD8B;}
	.st13{fill:#F3BC99;}
	.st14{fill:none;stroke:#8A6656;stroke-width:0.432;stroke-miterlimit:10;}
	.st15{fill:#010202;}
	.st16{fill:none;}
	.st17{fill:#CF5252;}
	.st18{fill:#433E3E;}
	.st19{fill:#554A4A;}
	.st20{fill:#40727B;}
	.st21{fill:#FAFAFA;}
	.st22{fill:#CDD6D6;}
	.st23{fill:#F8FAFA;}
	.st24{fill:#2D3A3A;}
	.st25{fill:#364746;}
	.st26{fill:none;stroke:#F8FAFA;stroke-width:0.432;stroke-miterlimit:10;}
	.st27{fill:#292A42;}
	.st28{opacity:0.14;fill:#B4BFC1;}
	.st29{fill:#E6E6E6;}
	.st30{opacity:0.23;fill:#541213;}
	.st31{fill:#B4B4B4;}
	.st32{font-family:'ThoughtLine25';}
	.st33{font-size:15px;}
	.st34{fill:#E52620;}
	.st35{fill:#FCD7B6;}
</style>
<g>
	<path class="st0" d="M545,338.6l53.5,7l-4.7-31.3l8.6-46.6c0.1-0.8,0.1-1.6,0-2.5l-13.1-65c-0.4-2.2-1.8-4-3.8-5.1l-55.1-29.5
		c-0.8-0.4-1.6-0.7-2.4-0.8l-45.9-6.6c-5-0.7-9.7,2.7-10.4,7.8l-2.1,14.5l-0.8-0.1c-3.1-0.4-6,1.7-6.4,4.8l-2.3,16.2l0,0
		c-3-0.4-5.8,1.6-6.2,4.7l-1.6,11.1c-0.4,2.9,1.5,5.6,4.4,6.2l0,0c1,0.2,1.6,1.1,1.5,2.1l-0.5,3.8c-0.7,5.8,3.3,11.2,9.2,12
		l33.4,4.8c3.1,0.5,5.7,2.7,6.5,5.8l8.8,33.1c3.3,12.4,8.9,24.1,15.8,34.9C534.7,325.3,537.3,327.8,545,338.6z"/>
	<polygon class="st1" points="460.1,201.4 483,205.2 478.9,199.5 460.7,196.8 	"/>
	<path class="st1" d="M456.6,223.4l42.6,6.2l-0.5-2.2l-3.2-4.5l-43.3-5.7C452.2,217.2,451.9,222.7,456.6,223.4z"/>
	<polygon class="st2" points="510.6,186.5 528.2,189 529,183.9 505.6,180.5 	"/>
	<path class="st3" d="M533.3,363l-0.1-24.8c0-1.8,1.5-3.3,3.3-3.3l68.3-0.2c1.8,0,3.3,1.5,3.3,3.3l0.1,24.8L533.3,363z"/>
	
		<rect x="567.9" y="323" transform="matrix(2.617953e-03 1 -1 2.617953e-03 929.7386 -211.2945)" class="st4" width="5.8" height="74.9"/>
	<g>
		<path class="st3" d="M512,5.7c0-3.1-2.6-5.7-5.7-5.7H306.9c-3.1,0-5.7,2.6-5.7,5.7v300.6c0,3.1,2.6,5.7,5.7,5.7h199.3
			c3.1,0,5.7-2.6,5.7-5.7V5.7z"/>
		<path class="st5" d="M512,5.7c0-3.1-2.6-5.7-5.7-5.7H306.9c-3.1,0-5.7,2.6-5.7,5.7v300.6c0,3.1,2.6,5.7,5.7,5.7h199.3
			c3.1,0,5.7-2.6,5.7-5.7V5.7z"/>
	</g>
	<rect x="311.6" y="30.5" class="st6" width="190" height="251"/>
	<ellipse class="st7" cx="406.6" cy="15.8" rx="2.1" ry="2.2"/>
	<path class="st8" d="M414.6,297.7c0-4.4-3.6-8-8-8c-4.4,0-8,3.6-8,8c0,4.4,3.6,8,8,8C411,305.7,414.6,302.1,414.6,297.7z"/>
	<g>
		<path class="st9" d="M468.5,156.1c0,1.1-0.9,2-2.1,2h-2.9v14.1c0,1.1-0.9,2-2.1,2c-1.1,0-2.1-0.9-2.1-2v-14.1h-3
			c-1.1,0-2.1-0.9-2.1-2s0.9-2,2.1-2h3v-8c0-1.1,0.9-2,2.1-2s2.1,0.9,2.1,2v8h2.9C467.6,154.1,468.5,155,468.5,156.1z"/>
		<g>
			<path class="st9" d="M441.3,172.9c-1.1-0.7-1.9-1.6-2.6-2.6c-0.2-0.4-0.3-0.8-0.2-1.3c0.1-0.5,0.4-0.8,0.8-1.1
				c0.4-0.3,0.9-0.3,1.3-0.2c0.5,0.1,0.9,0.3,1.1,0.8c0.4,0.6,0.9,1.1,1.5,1.5c0.7,0.5,1.4,0.8,2.1,0.8c0.9,0,1.6-0.3,2.1-0.8
				c0.6-0.5,0.9-1.1,0.9-1.8s-0.2-1.3-0.7-1.7c-0.4-0.3-1.3-0.7-2.8-1c-1.8-0.5-3.1-1-4-1.6c-1.4-1-2.1-2.4-2.1-4.4
				c0-1.7,0.6-3.1,1.9-4.3c1.2-1.2,2.8-1.8,4.7-1.8c1.3,0,2.5,0.3,3.6,1c1.1,0.7,1.9,1.5,2.4,2.7c0.2,0.4,0.2,0.8,0.1,1.3
				c-0.2,0.4-0.5,0.8-0.9,0.9c-0.5,0.2-0.9,0.3-1.3,0.1s-0.8-0.4-1-0.9c-0.2-0.5-0.6-0.9-1.1-1.2c-0.5-0.3-1.1-0.4-1.7-0.4
				c-0.9,0-1.6,0.3-2.2,0.8s-0.9,1.1-0.9,1.8c0,0.8,0.2,1.3,0.7,1.6c0.4,0.3,1.3,0.7,2.8,1c1.8,0.5,3.1,1,4,1.6
				c1.4,1,2.1,2.5,2.1,4.4c0,1.7-0.6,3.1-1.9,4.3c-1.3,1.2-2.8,1.8-4.7,1.8C443.9,174.1,442.6,173.7,441.3,172.9z"/>
		</g>
		<g>
			<g id="XMLID_2_">
				<g>
					<path class="st9" d="M369.3,163.8c0,5.7-4.7,10.4-10.4,10.4c-2.3,0-4.5-0.8-6.2-2.1v-8.3c0,3.4,2.8,6.2,6.2,6.2
						c3.4,0,6.2-2.8,6.2-6.2c0-3.4-2.8-6.2-6.2-6.2l-0.2,0c-1-0.1-1.9-1-1.9-2.1c0-1.1,0.9-2.1,2.1-2.1h0
						C364.7,153.5,369.3,158.2,369.3,163.8z"/>
					<path class="st9" d="M352.7,172.1v12.7c0,1-0.9,1.7-2.1,1.7c-1.1,0-2.1-0.8-2.1-1.7v-21C348.6,167.2,350.2,170.2,352.7,172.1z"
						/>
					<path class="st9" d="M352.7,163.8v8.3c-2.5-1.9-4.1-4.9-4.1-8.3v-0.3c0-1,0.9-1.7,2.1-1.7c1.1,0,2.1,0.8,2.1,1.7V163.8z"/>
				</g>
				<g>
				</g>
			</g>
		</g>
		<path class="st9" d="M420.1,172c0,1.2,0.9,2.1,2.1,2.1s2.1-0.9,2.1-2.1v-25.8c0-1.2-0.9-2.1-2.1-2.1s-2.1,0.9-2.1,2.1V172"/>
		<path class="st9" d="M377.9,157.1v9.5c0,2.2,2,4,4.4,4c2.5,0,4.4-1.8,4.4-4v-9.5v-1.5c0-1,0.9-1.9,2.1-1.9c1.2,0,2.2,0.9,2.2,1.9
			v1.5v9.5l0,0c-0.1,4.2-3.9,7.6-8.6,7.6s-8.5-3.4-8.6-7.6l0,0v-9.5v-1.5c0-1,0.9-1.9,2.1-1.9s2.2,0.9,2.2,1.9L377.9,157.1z"/>
		<g>
			<g id="XMLID_1_">
				<g>
					<path class="st9" d="M405.7,153.5c5.7,0,10.4,4.7,10.4,10.4c0,5.7-4.7,10.3-10.3,10.3h0c-1.1,0-2.1-0.9-2.1-2.1
						c0-1.1,0.8-2,1.9-2.1l0.2,0c3.4,0,6.2-2.8,6.2-6.2c0-3.4-2.8-6.2-6.2-6.2c-3.4,0-6.2,2.8-6.2,6.2v-8.3
						C401.2,154.3,403.3,153.5,405.7,153.5z"/>
					<path class="st9" d="M399.5,163.8v0.3c0,1-0.9,1.7-2.1,1.7s-2.1-0.8-2.1-1.7v-0.3c0-3.4,1.6-6.4,4.1-8.3V163.8z"/>
					<path class="st9" d="M399.5,142.8v12.7c-2.5,1.9-4.1,4.9-4.1,8.3v-21c0-1,0.9-1.7,2.1-1.7S399.5,141.9,399.5,142.8z"/>
				</g>
				<g>
				</g>
			</g>
		</g>
		<path class="st10" d="M459.8,165.5"/>
		<path class="st9" d="M429.3,172.6c0,0.8,0.9,1.4,2.1,1.4s2.1-0.6,2.1-1.4v-17.6c0-0.8-0.9-1.4-2.1-1.4s-2.1,0.6-2.1,1.4V172.6"/>
	</g>
	<g>
		<circle class="st11" cx="453.3" cy="91.4" r="39.2"/>
		<polygon class="st12" points="453.4,111 444.5,103 444.5,92.8 462.2,92.8 462.2,103 		"/>
		<path class="st13" d="M437,77.9c-0.1-2.5,1.8-0.8,1.8-0.8s-3.9-20,14.6-20c18.5,0,14.6,20,14.6,20s1.9-1.8,1.8,0.8
			c-0.1,2.5-0.7,4.3-0.7,4.3s-0.3,2.9-2.9,4.3c0,0-0.5,5-2.6,7.1c-2.1,2.1-5.4,6.9-10.2,6.7c-4.8,0.2-8.1-4.6-10.2-6.7
			c-2.1-2.1-2.6-7.1-2.6-7.1c-2.7-1.3-2.9-4.3-2.9-4.3S437,80.4,437,77.9z"/>
		<path class="st11" d="M449.4,63.1c-1.8,0.2-3.5,1.1-4.8,2.3c-1,0.9-1.9,2.1-2.5,3.3c-1.5,2.9-0.9,6-1.2,9.2
			c-0.1,1.5-1.2,3.1-1.2,4.6c-1.9-3.7-3.2-7.7-3.3-11.8c0,0,0.5-9.4,2.4-12.2c1.9-2.9,6.6-8.8,10.5-6.2c0,0,6.4-2.6,14.5,1.6
			c0,0,1.7,1,2.5,1.7c0.8,0.7,2.3,6.8,2.3,6.8c1.1,2.1,1.9,4.3,2,6.6c0.2,4.2-1.8,8.1-3.7,11.9c-0.1-0.9-1-2.1-1.2-3
			c-0.5-3.1-0.1-6-0.5-9.1c-4.2,0.3-8.2-1.9-11.9-4c0.7,1.2,1.7,2.3,2.9,3.1c-2.8-0.7-5.3-2.4-6.9-4.8"/>
		<ellipse class="st14" cx="426.8" cy="81.2" rx="0.1" ry="0"/>
		<path class="st15" d="M440.3,54.3"/>
		<path class="st11" d="M466.6,79.2L466.6,79.2c-0.3,0-0.6,0.2-0.6,0.5v0.1c0,2.4-2.5,6.4-3.4,7.8c-1,1.4-2.2,2-3,2.3
			c-0.2-1.2-0.8-3.6-2.6-4.4l-0.1,0c-1-0.4-2.3-0.7-3.6-0.7c-1.3,0-2.6,0.2-3.6,0.7l-0.1,0c-1.8,0.8-2.4,3.2-2.6,4.4
			c-0.7-0.3-2-0.9-3-2.3c-0.9-1.3-3.4-5.4-3.4-7.8v-0.1c0-0.3-0.3-0.5-0.6-0.5h0c-0.3,0-0.6,0.2-0.6,0.5v8.9
			c0,7.3,6.1,13.3,13.7,13.4h0.1c3.7,0,7.1-1.4,9.8-3.9c2.6-2.5,4-5.8,4-9.3l0-9c0,0,0-0.1,0-0.1C467.2,79.5,466.9,79.2,466.6,79.2
			L466.6,79.2z M456.5,94.4c-0.2,0.3-0.6,0.4-1,0.4c0,0-0.1,0-0.1,0c-0.4,0-0.6-0.1-0.6-0.2c-0.1-0.3,0.3-1.2,0.7-1.8
			c0.1-0.2,0.1-0.4,0.1-0.6c-0.1-0.2-0.3-0.3-0.5-0.3h-3.4c-0.2,0-0.4,0.1-0.5,0.3c-0.1,0.2-0.1,0.4,0.1,0.6
			c0.5,0.6,0.9,1.5,0.7,1.8c0,0.1-0.2,0.2-0.6,0.2c0,0-0.1,0-0.1,0c-0.4,0-0.8-0.2-1-0.4c-0.7-0.8-0.6-2.5-0.5-3.1c0,0,0,0,0,0
			c0,0,0.2-1.8,1.2-2.1c1-0.4,2-0.8,2.4-1c0.4,0.2,1.4,0.6,2.4,1c0.8,0.3,1.2,1.6,1.2,2.1c0,0,0,0,0,0
			C457.1,91.9,457.2,93.6,456.5,94.4L456.5,94.4z M456.5,94.4"/>
		<g>
			<path class="st16" d="M439.9,103.4l4.6-3.8l0,3.3c2.6,2.5,10.2,8.4,17.7-0.3l0-3l4.6,3.8l20.4,7.6c3.3-5.8,5.3-12.5,5.3-19.6
				c0-21.6-17.5-39.2-39.2-39.2c-21.6,0-39.2,17.5-39.2,39.2c0,7.2,1.9,13.9,5.3,19.6L439.9,103.4z"/>
			<path class="st17" d="M444.5,102.9l0,26.6c2.8,0.7,5.8,1,8.8,1c3.1,0,6-0.4,8.9-1l0-26.9C454.7,111.4,447.1,105.5,444.5,102.9z"
				/>
			<path class="st18" d="M442.9,103.4l1.7-3.8l-4.6,3.8l-20.5,7.6c4.8,8.3,12.5,14.6,21.8,17.6l-2.6-22L442.9,103.4z"/>
			<path class="st19" d="M444.5,99.6l-1.7,3.8l-4.2,3.2l2.6,22c1.1,0.3,2.2,0.7,3.3,0.9l0-26.6L444.5,99.6z"/>
			<path class="st18" d="M462.2,99.6l1.7,3.8l4.2,3.2l-2.6,22c9.2-3,16.9-9.4,21.7-17.6l-20.4-7.6L462.2,99.6z"/>
			<path class="st19" d="M463.9,103.4l-1.7-3.8l0,3l0,26.9c1.1-0.3,2.2-0.6,3.3-0.9l2.6-22L463.9,103.4z"/>
		</g>
		<circle class="st11" cx="447.4" cy="78.7" r="1.1"/>
		<circle class="st11" cx="459.5" cy="78.7" r="1.1"/>
		<g>
			<path class="st11" d="M445.5,76.2c0,0,0.3-0.5,0.6-0.8c0.2-0.2,0.4-0.3,0.6-0.5c0.1,0,0.2-0.1,0.4-0.1c0.1,0,0.2,0,0.4,0
				c0.1,0,0.2,0,0.4,0c0.1,0,0.2,0.1,0.4,0.1c0.1,0,0.2,0.1,0.3,0.2c0.1,0.1,0.2,0.2,0.3,0.3c0.4,0.3,0.6,0.8,0.6,0.8v0.2
				c0,0-0.3,0-0.6,0c-0.4,0-0.9,0-1.4,0c-0.5,0-1,0-1.4,0c-0.4,0-0.6,0-0.6,0V76.2z"/>
		</g>
		<g>
			<path class="st11" d="M457.5,76.2c0,0,0.3-0.5,0.7-0.8c0.2-0.2,0.4-0.3,0.7-0.5c0.1,0,0.2-0.1,0.4-0.1c0.1,0,0.3,0,0.4,0
				c0.1,0,0.2,0,0.4,0c0.1,0,0.2,0.1,0.4,0.1c0.1,0,0.2,0.1,0.3,0.2c0.1,0.1,0.2,0.2,0.3,0.3c0.4,0.3,0.6,0.8,0.6,0.8v0.2
				c0,0-0.2,0-0.6,0c-0.4,0-0.9,0-1.3,0c-0.5,0-1,0-1.4,0c-0.4,0-0.7,0-0.7,0V76.2z"/>
		</g>
	</g>
	<g>
		<circle class="st20" cx="360.5" cy="91.5" r="39.2"/>
		<polygon class="st12" points="360.4,110.8 351.6,102.8 351.6,92.6 369.2,92.6 369.2,102.8 		"/>
		<path class="st13" d="M344.1,77.7c-0.1-2.5,1.8-0.8,1.8-0.8s-3.9-20,14.6-20c18.5,0,14.6,20,14.6,20s1.9-1.8,1.8,0.8
			c-0.1,2.5-0.7,4.3-0.7,4.3s-0.3,2.9-2.9,4.3c0,0-0.5,5-2.6,7.1c-2.1,2.1-5.4,6.9-10.2,6.7c-4.8,0.2-8.1-4.6-10.2-6.7
			c-2.1-2.1-2.6-7.1-2.6-7.1c-2.7-1.3-2.9-4.3-2.9-4.3S344.2,80.3,344.1,77.7z"/>
		<path class="st20" d="M364.2,61.6c3.2,0.4,5.9,2.8,7.3,5.6s1.9,6.1,2.2,9.3c0.1,1.5,0.3,3,0.2,4.5c1.9-3.7,3.2-7.7,3.3-11.8
			c0,0-0.5-9.4-2.4-12.2c-1.9-2.9-6.6-8.8-10.5-6.2c0,0-6.4-2.6-14.5,1.6c0,0-1.7,1-2.5,1.7s-2.3,6.8-2.3,6.8
			c-1.1,2.1-1.9,4.3-2,6.6c-0.2,4.2,1.8,8.1,3.7,11.9c0.6-4,1.2-8.1,1.7-12.1c4.2,0.3,8.2-1.9,11.9-4c-0.7,1.2-1.7,2.3-2.9,3.1
			c2.8-0.7,5.3-2.4,6.9-4.8"/>
		<path class="st15" d="M347.4,54.1"/>
		<g>
			<path class="st16" d="M341.6,105.2L341.6,105.2l5.3-2l4.6-3.8l0-0.3c0,0,0,0,0,0l0.1-1c0,0,8.9,11.9,17.9,0v1v0.3l4.5,3.8l5.3,2
				l-0.5,0l14.7,5.6v0.2c4-5.7,5.7-12.4,5.7-19.5c0-21.6-17.3-39.2-38.9-39.2c-21.6,0-39.1,17.5-39.1,39.2c0,7,1.9,13.6,5.2,19.4
				L341.6,105.2z"/>
			<polygon class="st16" points="352.5,100.4 352.5,100.5 351.5,104.6 351.6,104.6 352.5,101.4 			"/>
			<polygon class="st16" points="369.5,103.8 369.5,104.6 369.3,104.6 369.5,99.4 369.5,100.4 			"/>
			<polygon class="st21" points="359.3,104.1 359.1,104.3 359.1,104.3 			"/>
			<path class="st21" d="M359.2,109.4L359.2,109.4l-1.5-2.8l-6.1,6.1l0.4-6.3l0.4-1.6v0l-1-0.3h0l0,25.4c2,0.5,4,0.6,6.1,0.7
				C357.3,113.3,359.2,109.4,359.2,109.4z"/>
			<path class="st21" d="M369.5,104.6v0.2v6.9v1l-6.1-6.1l-0.3-0.2l-0.7,2.5l0,0c1.3,0.5,1.2,14.1,1,21.7c2-0.2,4-0.1,5.9-0.5
				l0-25.4H369.5z"/>
			<path class="st22" d="M351.5,99.2C351.5,99.1,351.5,99.1,351.5,99.2l0,0.3l0,0L351.5,99.2z"/>
			<polygon class="st22" points="363.1,106.4 363.4,106.6 369.5,112.7 369.5,111.7 363.4,105.6 			"/>
			<polygon class="st22" points="359.1,104.3 359.1,104.3 351.6,111.7 351.6,105.4 352.1,103.8 352.5,100.3 352.5,100.6 
				351.5,100.6 351.5,101.4 351.5,103.9 351.6,104.8 351.6,104.8 351.6,106.4 351.6,112.7 357.8,106.6 357.4,106 			"/>
			<path class="st23" d="M352.5,99.4v0.8l-0.4,3.5l-0.2,1.7l-0.1,6.3l7.4-7.5l0.1-0.2l2.6,0l1.5,1.4l0,0l6.1,6.1v-6.9v-1v0v-3.3v-1
				v-0.3v-1c-9,11.9-17.9,0-17.9,0l0,1l0.5,0.3L352.5,99.4z"/>
			<polygon class="st20" points="363.3,105.6 361.9,104.1 359.3,104.1 359.1,104.3 357.4,106 357.8,106.6 359.3,109.4 362.4,108.8 
				362.4,108.8 362.4,108.8 363.1,106.4 363.3,105.6 			"/>
			<path class="st20" d="M362.4,108.8C362.4,108.8,362.4,108.8,362.4,108.8l-3.1,0.6l0,0c0,0-2,3.7-1.6,21.1
				c0.9,0.1,1.9,0.1,2.9,0.1c1,0,2,0,3-0.1C363.6,122.9,363.7,109.3,362.4,108.8z"/>
			<path class="st24" d="M326.4,110.8c4.6,8.1,12,14.4,20.9,17.5l-5.7-23.2L326.4,110.8z"/>
			<path class="st25" d="M352.5,100.4v-0.2l-0.5-0.8l-0.3,0l-0.1,0l-4.8,3.5l-5.5,1.7h0l5.9,23.5c1.4,0.5,2.9,1,4.3,1.4l0.5-25.7
				L352.5,100.4z"/>
			<path class="st24" d="M378.8,105.2l-5.9,23.2c8.9-3.1,15.7-9.4,20.7-17.4v-0.2L378.8,105.2z"/>
			<path class="st25" d="M379.4,105.2l-5.4-2l-4.7-3.8l0,4.4l0,25.8c1.5-0.3,2.9-0.7,4.3-1.2L379.4,105.2L379.4,105.2z"/>
		</g>
		<circle class="st20" cx="354.2" cy="79.8" r="1.1"/>
		<circle class="st20" cx="366.3" cy="79.8" r="1.1"/>
		<g>
			<path class="st20" d="M352.5,77.3c0,0,0.2-0.5,0.6-0.8c0.2-0.2,0.4-0.3,0.6-0.5c0.1,0,0.2-0.1,0.3-0.1c0.1,0,0.2,0,0.4,0
				c0.1,0,0.2,0,0.4,0c0.1,0,0.2,0.1,0.4,0.1c0.1,0,0.2,0.1,0.3,0.2c0.1,0.1,0.3,0.2,0.4,0.3c0.4,0.3,0.7,0.8,0.7,0.8v0.2
				c0,0-0.3,0-0.7,0c-0.4,0-0.9,0-1.4,0c-0.5,0-0.9,0-1.3,0c-0.4,0-0.6,0-0.6,0V77.3z"/>
		</g>
		<g>
			<path class="st20" d="M364.5,77.3c0,0,0.2-0.5,0.6-0.8c0.2-0.2,0.4-0.3,0.6-0.5c0.1,0,0.2-0.1,0.4-0.1c0.1,0,0.2,0,0.4,0
				c0.1,0,0.2,0,0.4,0c0.1,0,0.2,0.1,0.4,0.1c0.1,0,0.2,0.1,0.3,0.2c0.1,0.1,0.3,0.2,0.3,0.3c0.4,0.3,0.7,0.8,0.7,0.8v0.2
				c0,0-0.3,0-0.7,0c-0.4,0-0.9,0-1.4,0c-0.5,0-1,0-1.4,0c-0.4,0-0.6,0-0.6,0V77.3z"/>
		</g>
		<line class="st26" x1="351.6" y1="99.5" x2="351.6" y2="111.4"/>
	</g>
	<path class="st0" d="M475.9,180.7c15.6-26.4,47,25.8,54.5,35.6c4.7,6.1-0.7,12.1-6.8,12.8c3.1,10.5,4.4,21.8,6,32.6
		c0.1,0.4,0.2,0.9,0.3,1.4c0.4,1.3,0.8,2.6,1.2,3.9c1.2,3.9-0.3,7.2-2.9,9.2c-3.6,3.7-10.1,4.1-14.1-1.5c-2-2.7-3.1-6.1-4-9.5
		c-2.8-6.3-3.9-13.1-3-20.1c0.2-1.4,0.6-2.6,1.2-3.7c-1-4.4-2.2-8.7-3.9-12.7c-5.6-13.6-18.1-25.5-27.1-37
		C474.8,188.4,473.7,184.5,475.9,180.7z"/>
	<path class="st2" d="M502.9,246.5l1.4,1.6c0.8,0.9,1.5,2,1.9,3.1l1.7,4.4l0.9-8.1c0.2-2.2,0.1-4.4-0.4-6.6l-3.5-15L479.8,189
		c-2.8-4.1-2-9.7,1.9-12.8l0,0c4-3.3,10-2.7,13.3,1.3l32.4,38.8c2.5,3,6.7,3.8,10.1,1.9l25.4-13.9c1.9-1,2.4-3.5,1.1-5.2l0,0
		c-1.1-1.4-3-1.8-4.6-0.9l-22.2,12.8c-2.3,1.3-5.2,0.8-6.9-1.2l-30.6-36.5c-5.7-6.8-15.8-7.7-22.5-2l0,0c-6.4,5.4-7.7,14.8-2.8,21.6
		l24.5,34.4L502.9,246.5z"/>
	<path class="st27" d="M610.9,360.5l-83.7,0.1c-4.6,0.1-8.2,3.8-8.2,8.4v301.4h99.5l0.8-302.9C619.1,362.8,615.5,360.4,610.9,360.5z
		"/>
	<polygon class="st28" points="310.9,29.6 501.4,29.6 501.6,281.6 499.9,281.6 	"/>
	<g>
		
			<rect x="70" y="246.6" transform="matrix(0.7978 -0.603 0.603 0.7978 -183.7043 165.9117)" class="st3" width="171" height="220.5"/>
		
			<rect x="2.9" y="265.1" transform="matrix(0.7978 -0.603 0.603 0.7978 -143.7575 107.5222)" class="st29" width="171" height="5.9"/>
		<path class="st3" d="M4.2,301L143,196.1c0,0,7.8,1.6,14.5,19.1L18.7,320.1C18.7,320.1,7.1,313.9,4.2,301z"/>
		
			<rect x="137.6" y="444.4" transform="matrix(0.7978 -0.603 0.603 0.7978 -223.9675 224.7636)" class="st30" width="171" height="3.8"/>
		<g>
			
				<rect x="23.2" y="282" transform="matrix(0.7978 -0.603 0.603 0.7978 -150.2997 117.0847)" class="st31" width="152.5" height="1.2"/>
			
				<rect x="29.3" y="290.1" transform="matrix(0.7978 -0.603 0.603 0.7978 -153.9691 122.4483)" class="st31" width="152.5" height="1.2"/>
			
				<rect x="36.6" y="299.8" transform="matrix(0.7978 -0.603 0.603 0.7978 -158.3119 128.796)" class="st31" width="152.5" height="1.2"/>
			
				<rect x="43.1" y="308.4" transform="matrix(0.7978 -0.603 0.603 0.7978 -162.1834 134.4549)" class="st31" width="152.5" height="1.2"/>
			
				<rect x="49.3" y="316.5" transform="matrix(0.7978 -0.603 0.603 0.7978 -165.8528 139.8185)" class="st31" width="152.5" height="1.2"/>
			
				<rect x="56.6" y="326.2" transform="matrix(0.7978 -0.603 0.603 0.7978 -170.1956 146.1662)" class="st31" width="152.5" height="1.2"/>
			
				<rect x="63.3" y="335.1" transform="matrix(0.7978 -0.603 0.603 0.7978 -174.2185 152.0465)" class="st31" width="152.5" height="1.2"/>
			
				<rect x="69.5" y="343.3" transform="matrix(0.7978 -0.603 0.603 0.7978 -177.888 157.4101)" class="st31" width="152.5" height="1.2"/>
			
				<rect x="76.8" y="352.9" transform="matrix(0.7978 -0.603 0.603 0.7978 -182.2308 163.7578)" class="st31" width="152.5" height="1.2"/>
			
				<rect x="83.3" y="361.5" transform="matrix(0.7978 -0.603 0.603 0.7978 -186.1022 169.4167)" class="st31" width="152.5" height="1.2"/>
			
				<rect x="89.4" y="369.7" transform="matrix(0.7978 -0.603 0.603 0.7978 -189.7717 174.7802)" class="st31" width="152.5" height="1.2"/>
			
				<rect x="96.7" y="379.3" transform="matrix(0.7978 -0.603 0.603 0.7978 -194.1144 181.128)" class="st31" width="152.5" height="1.2"/>
			
				<rect x="103.1" y="387.8" transform="matrix(0.7978 -0.603 0.603 0.7978 -197.9131 186.6803)" class="st31" width="152.5" height="1.2"/>
			
				<rect x="109.3" y="395.9" transform="matrix(0.7978 -0.603 0.603 0.7978 -201.5825 192.0439)" class="st31" width="152.5" height="1.2"/>
			
				<rect x="116.6" y="405.6" transform="matrix(0.7978 -0.603 0.603 0.7978 -205.9253 198.3917)" class="st31" width="152.5" height="1.2"/>
			
				<rect x="123.1" y="414.2" transform="matrix(0.7978 -0.603 0.603 0.7978 -209.7967 204.0505)" class="st31" width="152.5" height="1.2"/>
			
				<rect x="129.2" y="422.3" transform="matrix(0.7978 -0.603 0.603 0.7978 -213.4662 209.4141)" class="st31" width="152.5" height="1.2"/>
			
				<rect x="136.5" y="432" transform="matrix(0.7978 -0.603 0.603 0.7978 -217.809 215.7618)" class="st31" width="152.5" height="1.2"/>
		</g>
		
			<rect x="44" y="281.3" transform="matrix(0.7978 -0.603 0.603 0.7978 -160.6122 126.8085)" class="st16" width="129.5" height="43"/>
		<text transform="matrix(0.7978 -0.6029 0.6029 0.7978 50.2004 332.7972)"><tspan x="0" y="0" class="st27 st32 st33">mijn eerste blog </tspan><tspan x="0" y="12" class="st27 st32 st33">gaat over  </tspan></text>
		
			<rect x="71.9" y="317.9" transform="matrix(0.7978 -0.603 0.603 0.7978 -179.2575 151.8093)" class="st16" width="129.5" height="50.5"/>
		<text transform="matrix(0.7978 -0.6029 0.6029 0.7978 75.8873 370.0997)"><tspan x="0" y="0" class="st27 st32 st33">In deze blog be</tspan><tspan x="103.5" y="0" class="st27 st32 st33">-</tspan><tspan x="0" y="9" class="st27 st32 st33">schrijf ik de </tspan><tspan x="0" y="18" class="st27 st32 st33">manier waarop...</tspan></text>
		
			<rect x="103.3" y="360.8" transform="matrix(0.7978 -0.603 0.603 0.7978 -199.9226 179.7626)" class="st16" width="129.5" height="54.2"/>
		<text transform="matrix(0.7978 -0.6029 0.6029 0.7978 106.0985 413.39)"><tspan x="0" y="0" class="st27 st32 st33">Wat leuk dat je </tspan><tspan x="0" y="10.5" class="st27 st32 st33">de tijd wil nemen </tspan><tspan x="0" y="21" class="st27 st32 st33">om </tspan></text>
		<g>
			<g>
				<path class="st34" d="M68.3,331c11.1-8.4,22-16.9,33.2-25.2c10.3-7.7,21.8-15.7,34.1-20.1c0.4-0.1,0.2-0.8-0.2-0.7
					c-11.7,4.1-22.8,11.7-32.7,19c-11.7,8.6-23.1,17.5-34.7,26.3C67.6,330.7,67.9,331.3,68.3,331L68.3,331z"/>
			</g>
		</g>
		<g>
			<g>
				<path class="st34" d="M96.8,375.2c1.2-2.9,2.5-5.1,3.2-8.2c0.9-3.7,1.6-7.5,2.6-11.2c1.6-6,4-11.7,6.2-17.5
					c0.2-0.4-0.5-0.6-0.7-0.2c-2.2,5.8-4.6,11.5-6.2,17.5c-1,3.7-1.7,7.5-2.6,11.2c-0.8,3-2.1,5.4-3.2,8.2
					C96,375.4,96.6,375.6,96.8,375.2L96.8,375.2z"/>
			</g>
		</g>
		<g>
			<g>
				<path class="st34" d="M121.9,360.2c0.7,0,0.7-1.1,0-1.1C121.2,359.1,121.2,360.2,121.9,360.2L121.9,360.2z"/>
			</g>
		</g>
		<g>
			<g>
				<path class="st34" d="M121.8,359.8c-19.1,0.2-38.3-3.5-57.2-6.1c-0.4-0.1-0.6,0.6-0.2,0.7c19,2.6,38.1,6.3,57.3,6.1
					C122.3,360.5,122.3,359.8,121.8,359.8L121.8,359.8z"/>
			</g>
		</g>
		<g>
			<g>
				<path class="st34" d="M107.6,406.3c20.1-15.2,40.4-30,60.5-45.1c0.3-0.3,0-0.8-0.3-0.6c-20.1,15.1-40.5,29.9-60.5,45.1
					C106.9,406,107.2,406.6,107.6,406.3L107.6,406.3z"/>
			</g>
		</g>
		<g>
			<g>
				<path class="st34" d="M117.2,404.1c13.2-10,26.3-19.9,39.5-29.9c5.2-4,10.7-7.7,15.6-12c2.5-2.2,4.7-4.6,7-7
					c1.8-1.9,4.1-3.5,5.2-5.8c0.2-0.4-0.4-0.7-0.6-0.3c-1.3,2.6-4.2,4.7-6.2,6.8c-2.3,2.5-4.6,4.8-7.2,7
					c-5.5,4.7-11.5,8.8-17.3,13.1c-12.1,9.2-24.3,18.3-36.4,27.5C116.5,403.7,116.8,404.3,117.2,404.1L117.2,404.1z"/>
			</g>
		</g>
		<g>
			<g>
				<path class="st34" d="M113.4,418.4c6.9-5.3,13.8-10.7,21.2-15.3c6.4-3.9,12.6-7.7,18.4-12.4c6.9-5.5,13.6-11.1,20.7-16.3
					c6.5-4.8,12.8-10.6,19.9-14.3c0.4-0.2,0-0.8-0.3-0.6c-7.2,3.8-13.5,9.5-19.9,14.3c-6.1,4.6-12.1,9.2-17.9,14
					c-6.7,5.6-13.8,10.1-21.2,14.7c-7.4,4.6-14.2,10-21.2,15.3C112.7,418.1,113.1,418.7,113.4,418.4L113.4,418.4z"/>
			</g>
		</g>
		<g>
			<g>
				<path class="st34" d="M107.7,417.8c12.3-9.3,24.6-18.7,37.2-27.6c11-7.8,23.1-14.2,34.5-21.4c0.4-0.2,0-0.8-0.3-0.6
					c-11.4,7.2-23.5,13.6-34.5,21.4c-12.6,8.9-24.9,18.3-37.2,27.6C107.1,417.5,107.4,418,107.7,417.8L107.7,417.8z"/>
			</g>
		</g>
		<g>
			<g>
				<path class="st34" d="M117,424.6c1,1.3,1.8,2.6,2.8,3.9c0.1,0.2,0.4,0.2,0.6,0c0.9-1.6-0.7-5.1-0.9-6.6
					c-0.2,0.1-0.3,0.2-0.5,0.3c1.6,0.8,2.7,3,3.9,4.3c0.1,0.1,0.3,0.1,0.5,0c1.1-1-1.3-4.2-1.6-5.1c-0.2,0.1-0.4,0.2-0.6,0.3
					c1.1,0.9,1.8,2.3,3.1,3c0.2,0.1,0.4,0,0.5-0.2c0.3-0.9-0.2-1.2-0.3-2.2c-0.2,0.1-0.4,0.2-0.6,0.2c0.9,0.7,2.6,3.5,3.9,3.4
					c0.4,0,0.5-0.1,0.9-0.5c0.3-0.3,0.5-2.7,0.7-2.5c0.3,0.3,0.8-0.2,0.5-0.5c-0.5-0.5-1.1-0.6-1.5,0.1c-0.6,0.8,0.4,1.2-0.7,1.8
					c-0.9,0.5-0.8,0.1-1.5-0.6c-0.6-0.6-1.2-1.2-1.8-1.7c-0.2-0.2-0.6-0.1-0.6,0.2c0.1,0.7,0.6,1.5-0.3,0.9c-0.7-0.4-1.2-1.5-1.8-2
					c-0.2-0.2-0.7,0-0.6,0.3c0.4,1.1,1.6,2.5,1.7,3.7c0,0.5-0.1-0.1-0.3-0.3c-0.4-0.4-0.7-0.9-1.1-1.3c-0.6-0.8-1.1-1.6-2.1-2
					c-0.2-0.1-0.5,0-0.5,0.3c0.2,1.2,0.4,2.3,0.6,3.4c0.2,0.9,0.8,2,0.3,2.9c0.2,0,0.4,0,0.6,0c-1-1.3-1.8-2.6-2.8-3.9
					C117.3,424,116.8,424.3,117,424.6L117,424.6z"/>
			</g>
		</g>
	</g>
	<g>
		<path class="st0" d="M0,517.8l0,18.7c0,3,1.1,5.8,3,8.1l29.5,34.1c1,1.1,1.5,2.5,1.5,4v17.7h61.9l1.2-17.1c0.1-1,0.4-2,0.9-2.8
			l10.3-16.3c1-1.6,1.6-3.4,1.8-5.2l2.3-24.1c0.1-0.7,0.1-1.3,0-2l-3.9-37l1.3-22.6l2.3-8.2c2-7.2-2.2-14.7-9.5-16.7l-1-0.3
			c-1.8-0.5-3.1-2.2-3-4.1l0.3-11.5c0.1-4.1-4-7-7.8-5.4L18,456.2c-0.6,0.2-1.1,0.8-1.3,1.4L0,517.8z M50.5,520.9l19.9-24.2
			c0.3-0.4,0.7-0.6,1.2-0.6h5.5c0.9,0,1.7,0.8,1.6,1.8l-2.1,18.7c0,0.1,0,0.2-0.1,0.3l-2.7,8.7c-0.2,0.5-0.6,0.9-1.1,1l-8.9,2.6
			c-0.4,0.1-0.8,0.1-1.1-0.1L51,523.4C50.1,522.9,49.9,521.7,50.5,520.9z"/>
	</g>
	<polygon class="st34" points="99,432.6 116.2,410.9 131.2,423.6 107.6,450.8 96.6,446.2 	"/>
	<polygon class="st35" points="131.2,423.6 137.8,402.6 116.2,410.9 	"/>
	<g>
		<polygon class="st34" points="137.8,402.6 135.3,410.8 129.8,405.7 		"/>
	</g>
	<path class="st34" d="M98.8,430.9l-77.1,92.6c-0.9,1.1-0.7,2.7,0.3,3.6l12.4,10.1c1.1,0.9,2.7,0.7,3.6-0.4l32.5-40.1l10.1-11.9
		l3.1-22.9c0.6-4.2,2.2-8.1,4.7-11.4v0l0,0c1.9-2.5,5-3.8,8.1-3.3l3.8,0.6L98.8,430.9z"/>
	<path class="st1" d="M83.7,449l-46.4,26.2l-6.5,24.4c-0.1,0.4-0.2,0.8-0.2,1.2l-0.1,12l7.4-8.9l0-4.6c0-0.5,0.1-1,0.2-1.5l6-18.1
		l29.1-18.2L83.7,449z"/>
	<path class="st27" d="M23,626.9l83,0.1c4.5,0.1,8.2,3.8,8.2,8.3v35H14.7v-36.5C14.8,629.3,18.5,626.9,23,626.9z"/>
	<path class="st3" d="M99.9,628.3l0.1-24.4c0-1.8-1.5-3.3-3.3-3.3L29,600.4c-1.8,0-3.3,1.5-3.3,3.3l-0.1,24.4L99.9,628.3z"/>
	
		<rect x="59.9" y="588.8" transform="matrix(-2.587234e-03 1 -1 -2.587234e-03 688.8326 564.7496)" class="st4" width="5.8" height="74.3"/>
</g>
</svg>
