<?xml version="1.0" encoding="utf-8"?>
<!-- Generator: Adobe Illustrator 19.2.0, SVG Export Plug-In . SVG Version: 6.00 Build 0)  -->
<svg version="1.1" id="Laag_1" xmlns="http://www.w3.org/2000/svg" xmlns:xlink="http://www.w3.org/1999/xlink" x="0px" y="0px"
	 viewBox="0 0 150 150" style="enable-background:new 0 0 150 150;" xml:space="preserve">
<style type="text/css">
	.st0{fill:#EDF2F5;}
	.st1{fill:#2D2D37;}
</style>
<circle class="st0" cx="75" cy="74.8" r="75"/>
<path id="linkedin-square-rounded-icon_2_" class="st1" d="M54.7,108.7H39.5V59.6h15.2V108.7z M47,53.1c-5,0-9-4.1-9-9.1
	c0-5,4-9.1,9-9.1c5,0,9,4.1,9,9.1C56,49.1,52,53.1,47,53.1z M111.7,108.7H96.6c0,0,0-18.7,0-25.8c0-7.1-2.7-11-8.3-11
	c-6.1,0-9.3,4.1-9.3,11c0,7.6,0,25.8,0,25.8H64.4V59.6H79v6.6c0,0,4.4-8.1,14.8-8.1c10.4,0,17.9,6.4,17.9,19.5
	C111.7,90.7,111.7,108.7,111.7,108.7z"/>
</svg>
