<?xml version="1.0" encoding="utf-8"?>
<!-- Generator: Adobe Illustrator 19.2.1, SVG Export Plug-In . SVG Version: 6.00 Build 0)  -->
<svg version="1.1" id="Laag_1" xmlns="http://www.w3.org/2000/svg" xmlns:xlink="http://www.w3.org/1999/xlink" x="0px" y="0px"
	 viewBox="0 0 189.3 72.8" style="enable-background:new 0 0 189.3 72.8;" xml:space="preserve">
<style type="text/css">
	.st0{fill:#E52420;}
</style>
<g>
	<path class="st0" d="M187.4,25.2c0,1.7-1.5,3.1-3.2,3.1h-4.5v22.1c0,1.7-1.5,3.1-3.2,3.1c-1.7,0-3.2-1.4-3.2-3.1V28.3h-4.7
		c-1.7,0-3.2-1.4-3.2-3.1s1.5-3.1,3.2-3.1h4.7V9.6c0-1.7,1.5-3.1,3.2-3.1c1.7,0,3.2,1.4,3.2,3.1v12.5h4.5
		C186,22.1,187.4,23.5,187.4,25.2z"/>
	<g>
		<path class="st0" d="M144.9,51.4c-1.7-1-3-2.5-4-4.1c-0.4-0.7-0.5-1.3-0.4-2c0.1-0.8,0.6-1.3,1.2-1.7c0.6-0.4,1.3-0.5,2.1-0.3
			c0.7,0.1,1.3,0.5,1.7,1.2c0.6,0.9,1.3,1.7,2.3,2.4c1.1,0.8,2.2,1.2,3.3,1.2c1.3,0,2.4-0.4,3.3-1.2c1-0.8,1.5-1.7,1.5-2.9
			c0-1.2-0.4-2-1.1-2.6c-0.6-0.5-2.1-1-4.4-1.6c-2.8-0.8-4.9-1.6-6.2-2.5c-2.2-1.6-3.3-3.8-3.3-6.8c0-2.6,1-4.8,3-6.7
			c1.9-1.8,4.4-2.7,7.3-2.7c2.1,0,3.9,0.5,5.6,1.6c1.7,1,2.9,2.4,3.8,4.2c0.4,0.7,0.4,1.3,0.1,2.1c-0.2,0.7-0.7,1.2-1.5,1.4
			c-0.7,0.3-1.3,0.4-2.1,0.1c-0.7-0.3-1.2-0.7-1.6-1.4c-0.4-0.8-1-1.4-1.7-1.8c-0.9-0.5-1.7-0.7-2.7-0.7c-1.3,0-2.4,0.4-3.4,1.2
			c-1,0.8-1.3,1.7-1.3,2.9c0,1.2,0.4,2,1.1,2.5c0.6,0.5,2.1,1,4.4,1.6c2.8,0.8,4.9,1.6,6.2,2.5c2.2,1.6,3.3,3.9,3.3,6.8
			c0,2.6-1,4.8-3,6.7c-2.1,1.8-4.4,2.7-7.3,2.7C148.9,53.4,146.9,52.7,144.9,51.4z"/>
	</g>
	<g>
		<g id="XMLID_4_">
			<g>
				<path class="st0" d="M32.4,37.3c0,8.9-7.3,16.2-16.2,16.2c-3.6,0-7-1.2-9.7-3.3V37.3c0,5.4,4.3,9.7,9.7,9.7s9.7-4.4,9.7-9.7
					c0-5.4-4.3-9.7-9.7-9.7v0c-1.8,0-3.2-1.5-3.2-3.2c0-1.8,1.5-3.2,3.2-3.2h0C25.1,21.1,32.4,28.4,32.4,37.3z"/>
				<path class="st0" d="M6.5,50.2v19.9c0,1.5-1.5,2.7-3.2,2.7c-1.8,0-3.2-1.2-3.2-2.7V37.3C0,42.5,2.6,47.2,6.5,50.2z"/>
				<path class="st0" d="M6.5,37.3v12.9C2.6,47.2,0,42.5,0,37.3v-0.5C0,35.2,1.5,34,3.2,34c1.8,0,3.2,1.2,3.2,2.7V37.3z"/>
			</g>
			<g>
			</g>
		</g>
	</g>
	<path class="st0" d="M111.7,50.1c0,1.8,1.5,3.3,3.3,3.3s3.3-1.5,3.3-3.3V9.7c0-1.8-1.5-3.3-3.3-3.3s-3.3,1.5-3.3,3.3V50.1"/>
	<path class="st0" d="M45.8,26.7v14.8c0,3.4,3.1,6.2,6.9,6.2c3.9,0,6.9-2.8,6.9-6.2V26.7l0-2.3c0-1.6,1.4-2.9,3.2-2.9
		s3.4,1.3,3.4,2.9v2.3v14.8l0,0c-0.1,6.6-6.1,11.9-13.5,11.9s-13.3-5.3-13.5-11.9l0,0V26.7l0-2.4c0-1.6,1.4-2.9,3.2-2.9
		c1.8,0,3.4,1.3,3.4,2.9L45.8,26.7z"/>
	<g>
		<g id="XMLID_3_">
			<g>
				<path class="st0" d="M89.2,21.1c8.9,0,16.2,7.3,16.2,16.2c0,8.8-7.3,16.1-16.1,16.1h0c-1.8,0-3.2-1.5-3.2-3.2
					c0-1.7,1.3-3.1,2.9-3.2l0.3,0c5.4,0,9.7-4.4,9.7-9.7c0-5.4-4.4-9.7-9.7-9.7s-9.7,4.4-9.7,9.7V24.3
					C82.2,22.3,85.6,21.1,89.2,21.1z"/>
				<path class="st0" d="M79.5,37.3v0.5c0,1.5-1.5,2.7-3.2,2.7c-1.8,0-3.2-1.2-3.2-2.7v-0.5c0-5.3,2.6-10,6.5-12.9V37.3z"/>
				<path class="st0" d="M79.5,4.5v19.9c-3.9,3-6.5,7.7-6.5,12.9V4.5c0-1.5,1.5-2.7,3.2-2.7C78,1.8,79.5,3,79.5,4.5z"/>
			</g>
			<g>
			</g>
		</g>
	</g>
	<path class="st0" d="M173.8,39.8"/>
	<path class="st0" d="M126.1,51c0,1.2,1.5,2.2,3.3,2.2c1.8,0,3.3-1,3.3-2.2V23.5c0-1.2-1.5-2.2-3.3-2.2c-1.8,0-3.3,1-3.3,2.2V51"/>
</g>
</svg>
