<?xml version="1.0" encoding="utf-8"?>
<!-- Generator: Adobe Illustrator 19.2.1, SVG Export Plug-In . SVG Version: 6.00 Build 0)  -->
<svg version="1.1" id="Laag_1" xmlns="http://www.w3.org/2000/svg" xmlns:xlink="http://www.w3.org/1999/xlink" x="0px" y="0px"
	 viewBox="0 0 116 44" style="enable-background:new 0 0 116 44;" xml:space="preserve">
<style type="text/css">
	.st0{fill:#FFFFFF;}
</style>
<g>
	<path class="st0" d="M116.1,14.5c0,1-0.9,1.9-2,1.9h-2.8v13.7c0,1-0.9,1.9-2,1.9c-1.1,0-2-0.9-2-1.9V16.5h-2.9c-1.1,0-2-0.9-2-1.9
		s0.9-1.9,2-1.9h2.9V4.9c0-1,0.9-1.9,2-1.9c1.1,0,2,0.9,2,1.9v7.7h2.8C115.1,12.6,116.1,13.5,116.1,14.5z"/>
	<g>
		<path class="st0" d="M89.7,30.8c-1.1-0.6-1.9-1.5-2.5-2.5C87,27.8,87,27.4,87,27c0.1-0.5,0.4-0.8,0.8-1.1s0.8-0.3,1.3-0.2
			c0.5,0.1,0.8,0.3,1.1,0.7c0.4,0.6,0.8,1.1,1.4,1.5c0.7,0.5,1.4,0.7,2,0.7c0.8,0,1.5-0.2,2-0.7c0.6-0.5,0.9-1.1,0.9-1.8
			s-0.2-1.2-0.7-1.6c-0.4-0.3-1.3-0.6-2.7-1c-1.7-0.5-3-1-3.8-1.5c-1.4-1-2-2.3-2-4.2c0-1.6,0.6-3,1.9-4.1c1.2-1.1,2.7-1.7,4.5-1.7
			c1.3,0,2.4,0.3,3.5,1s1.8,1.5,2.3,2.6c0.2,0.4,0.2,0.8,0.1,1.3c-0.2,0.4-0.5,0.7-0.9,0.9c-0.5,0.2-0.8,0.2-1.3,0.1
			c-0.5-0.2-0.8-0.4-1-0.9s-0.6-0.9-1.1-1.1c-0.5-0.3-1.1-0.4-1.7-0.4c-0.8,0-1.5,0.2-2.1,0.7c-0.6,0.5-0.8,1.1-0.8,1.8
			c0,0.7,0.2,1.2,0.7,1.5c0.4,0.3,1.3,0.6,2.7,1c1.7,0.5,3,1,3.8,1.5c1.4,1,2,2.4,2,4.2c0,1.6-0.6,3-1.9,4.1
			c-1.3,1.1-2.7,1.7-4.5,1.7C92.2,32,91,31.6,89.7,30.8z"/>
	</g>
	<g>
		<g id="XMLID_4_">
			<g>
				<path class="st0" d="M20.1,22c0,5.5-4.5,10-10,10c-2.2,0-4.3-0.8-6-2v-8c0,3.3,2.7,6,6,6c3.3,0,6-2.7,6-6s-2.7-6-6-6v0
					c-1.1,0-2-0.9-2-2c0-1.1,0.9-2,2-2h0C15.6,12,20.1,16.5,20.1,22z"/>
				<path class="st0" d="M4.1,30v12.3c0,0.9-0.9,1.7-2,1.7c-1.1,0-2-0.7-2-1.7V22C0.1,25.3,1.6,28.2,4.1,30z"/>
				<path class="st0" d="M4.1,22v8c-2.4-1.8-4-4.7-4-8v-0.3c0-0.9,0.9-1.7,2-1.7c1.1,0,2,0.7,2,1.7V22z"/>
			</g>
			<g>
			</g>
		</g>
	</g>
	<path class="st0" d="M69.2,29.9c0,1.1,0.9,2,2,2c1.1,0,2-0.9,2-2v-25c0-1.1-0.9-2-2-2c-1.1,0-2,0.9-2,2V29.9"/>
	<path class="st0" d="M28.4,15.5v9.2c0,2.1,1.9,3.8,4.2,3.8c2.4,0,4.2-1.7,4.2-3.8v-9.2l0-1.5c0-1,0.9-1.8,2-1.8
		c1.1,0,2.1,0.8,2.1,1.8v1.5v9.2l0,0c-0.1,4.1-3.8,7.4-8.3,7.4s-8.3-3.3-8.3-7.4l0,0v-9.2l0-1.5c0-1,0.9-1.8,2-1.8
		c1.1,0,2.1,0.8,2.1,1.8L28.4,15.5z"/>
	<g>
		<g id="XMLID_3_">
			<g>
				<path class="st0" d="M55.3,12c5.5,0,10,4.5,10,10c0,5.5-4.5,10-10,10h0c-1.1,0-2-0.9-2-2c0-1,0.8-1.9,1.8-2l0.2,0
					c3.3,0,6-2.7,6-6s-2.7-6-6-6c-3.3,0-6,2.7-6,6v-8C50.9,12.7,53,12,55.3,12z"/>
				<path class="st0" d="M49.2,22v0.3c0,0.9-0.9,1.7-2,1.7c-1.1,0-2-0.7-2-1.7V22c0-3.3,1.6-6.2,4-8V22z"/>
				<path class="st0" d="M49.2,1.7V14c-2.4,1.8-4,4.7-4,8V1.7c0-0.9,0.9-1.7,2-1.7C48.3,0,49.2,0.8,49.2,1.7z"/>
			</g>
			<g>
			</g>
		</g>
	</g>
	<path class="st0" d="M78.1,30.5c0,0.8,0.9,1.4,2,1.4s2-0.6,2-1.4v-17c0-0.8-0.9-1.4-2-1.4s-2,0.6-2,1.4V30.5"/>
</g>
</svg>
