<?xml version="1.0" encoding="utf-8"?>
<!-- Generator: Adobe Illustrator 19.2.1, SVG Export Plug-In . SVG Version: 6.00 Build 0)  -->
<svg version="1.1" id="Laag_1" xmlns="http://www.w3.org/2000/svg" xmlns:xlink="http://www.w3.org/1999/xlink" x="0px" y="0px"
	 viewBox="0 0 400 400" style="enable-background:new 0 0 400 400;" xml:space="preserve">
<style type="text/css">
	.st0{fill:#FF6B6B;}
	.st1{fill:#FFFFFF;}
	.st2{fill:none;stroke:#CC1B1B;stroke-miterlimit:10;}
</style>
<rect class="st0" width="400" height="400"/>
<path class="st1" d="M367.1,178.7c0,3-2.6,5.5-5.7,5.5h-8.1v39.3c0,3-2.6,5.5-5.7,5.5c-3.1,0-5.7-2.5-5.7-5.5v-39.3h-8.3
	c-3.1,0-5.7-2.5-5.7-5.5s2.6-5.5,5.7-5.5h8.3V151c0-3,2.6-5.5,5.7-5.5c3.1,0,5.7,2.5,5.7,5.5v22.2h8.1
	C364.5,173.1,367.1,175.7,367.1,178.7z"/>
<g>
	<path class="st1" d="M291.4,225.4c-3-1.9-5.4-4.4-7.1-7.2c-0.6-1.2-0.9-2.3-0.6-3.5c0.2-1.4,1.1-2.3,2.2-3c1.1-0.7,2.4-0.9,3.7-0.5
		c1.3,0.2,2.4,0.9,3,2.1c1.1,1.6,2.4,3,4.1,4.2c1.9,1.4,3.9,2.1,5.8,2.1c2.4,0,4.3-0.7,5.8-2.1c1.7-1.4,2.6-3,2.6-5.1
		c0-2.1-0.6-3.5-1.9-4.7c-1.1-0.9-3.7-1.9-7.8-2.8c-5-1.4-8.7-2.8-11-4.4c-3.9-2.8-5.8-6.8-5.8-12.1c0-4.7,1.7-8.6,5.4-11.9
		c3.5-3.3,7.8-4.9,13-4.9c3.7,0,6.9,0.9,10,2.8c3,1.9,5.2,4.2,6.7,7.5c0.6,1.2,0.6,2.3,0.2,3.7c-0.4,1.2-1.3,2.1-2.6,2.6
		c-1.3,0.5-2.4,0.7-3.7,0.2c-1.3-0.5-2.2-1.2-2.8-2.6s-1.7-2.6-3-3.3c-1.5-0.9-3-1.2-4.8-1.2c-2.4,0-4.3,0.7-6.1,2.1
		c-1.7,1.4-2.4,3-2.4,5.1c0,2.1,0.6,3.5,1.9,4.4c1.1,0.9,3.7,1.9,7.8,2.8c5,1.4,8.7,2.8,11,4.4c3.9,2.8,5.8,7,5.8,12.1
		c0,4.7-1.7,8.6-5.4,11.9c-3.7,3.3-7.8,4.9-13,4.9C298.5,228.9,294.8,227.7,291.4,225.4z"/>
</g>
<g>
	<g id="XMLID_4_">
		<g>
			<path class="st1" d="M62,171.4c15.8,0,28.8,13,28.8,28.8c0,15.8-13,28.9-28.9,28.9c-6.5,0-12.5-2.2-17.3-5.8v-23
				c0,9.6,7.8,17.3,17.3,17.3c9.6,0,17.3-7.8,17.3-17.3c0-9.6-7.8-17.3-17.3-17.3v0.1c-3.2,0-5.8-2.6-5.8-5.8
				C56.2,174,58.8,171.4,62,171.4L62,171.4z"/>
			<path class="st1" d="M44.7,223.2c-7-5.3-11.5-13.7-11.5-23v-1c0-2.7,2.6-4.8,5.8-4.8c3.2,0,5.8,2.2,5.8,4.8v1V223.2z"/>
			<path class="st1" d="M38.9,263.5c-3.2,0-5.8-2.2-5.8-4.8v-58.5c0,9.4,4.6,17.7,11.5,23v35.4C44.7,261.3,42.1,263.5,38.9,263.5z"
				/>
		</g>
		<g>
		</g>
	</g>
</g>
<path class="st1" d="M232.1,223c0,3.2,2.6,5.8,5.8,5.8s5.8-2.6,5.8-5.8v-72c0-3.2-2.6-5.8-5.8-5.8s-5.8,2.6-5.8,5.8V223"/>
<path class="st1" d="M114.6,181.4v26.4c0,6.1,5.5,11,12.2,11c6.9,0,12.2-5,12.2-11v-26.4l0-4.2c0-2.8,2.5-5.2,5.8-5.2s6,2.4,6,5.2
	v4.2v26.4l0,0c-0.2,11.7-10.8,21.2-24,21.2s-23.8-9.5-24-21.2l0,0v-26.4l0-4.3c0-2.8,2.5-5.2,5.8-5.2s6,2.4,6,5.2L114.6,181.4z"/>
<g>
	<g id="XMLID_3_">
		<g>
			<path class="st1" d="M192,171.3c15.8,0,28.9,13,28.9,28.9c0,15.7-13,28.7-28.8,28.8H192c-3.2,0-5.8-2.6-5.8-5.8
				c0-3,2.3-5.5,5.2-5.8l0.6,0.1c9.6,0,17.3-7.8,17.3-17.3c0-9.6-7.8-17.3-17.3-17.3c-9.6,0-17.3,7.8-17.3,17.3v-23
				C179.6,173.5,185.6,171.3,192,171.3z"/>
			<path class="st1" d="M174.7,200.2v1c0,2.6-2.6,4.8-5.8,4.8c-3.2,0-5.8-2.2-5.8-4.8v-1c0-9.4,4.6-17.7,11.5-23V200.2z"/>
			<path class="st1" d="M174.7,141.7v35.5c-7,5.3-11.5,13.7-11.5,23v-58.5c0-2.6,2.6-4.8,5.8-4.8
				C172.1,136.9,174.7,139.1,174.7,141.7z"/>
		</g>
		<g>
		</g>
	</g>
</g>
<path class="st2" d="M362.2,195.2"/>
<path class="st1" d="M257.8,224.6c0,2.2,2.6,4,5.8,4s5.8-1.8,5.8-4v-48.9c0-2.2-2.6-4-5.8-4s-5.8,1.8-5.8,4V224.6"/>
</svg>
