<?xml version="1.0" encoding="utf-8"?>
<!-- Generator: Adobe Illustrator 19.2.1, SVG Export Plug-In . SVG Version: 6.00 Build 0)  -->
<svg version="1.1" id="Laag_1" xmlns="http://www.w3.org/2000/svg" xmlns:xlink="http://www.w3.org/1999/xlink" x="0px" y="0px"
	 viewBox="0 0 25 25" style="enable-background:new 0 0 25 25;" xml:space="preserve">
<style type="text/css">
	.st0{fill:none;stroke:#FFFFFF;stroke-miterlimit:10;}
	.st1{filter:url(#Adobe_OpacityMaskFilter);}
	.st2{fill:#F4F4F2;}
	.st3{mask:url(#SVGID_1_);}
	.st4{fill:#FFFFFF;}
</style>
<circle class="st0" cx="12.5" cy="12.5" r="12"/>
<defs>
	<filter id="Adobe_OpacityMaskFilter" filterUnits="userSpaceOnUse" x="5.2" y="5.5" width="14.6" height="14.6">
		<feFlood  style="flood-color:white;flood-opacity:1" result="back"/>
		<feBlend  in="SourceGraphic" in2="back" mode="normal"/>
	</filter>
</defs>
<mask maskUnits="userSpaceOnUse" x="5.2" y="5.5" width="14.6" height="14.6" id="SVGID_1_">
	<g class="st1">
		<path class="st2" d="M19.8,15.6c0,0.9-0.7,1.6-1.6,1.6H8.7c-0.9,0-1.6-0.7-1.6-1.6V6.1c0-0.9,0.7-1.6,1.6-1.6h9.5
			c0.9,0,1.6,0.7,1.6,1.6V15.6z"/>
	</g>
</mask>
<g class="st3">
	<polygon class="st4" points="19.8,7.5 17.8,7.5 17.8,5.5 16.8,5.5 16.8,7.5 14.8,7.5 14.8,8.5 16.8,8.5 16.8,10.5 17.8,10.5 
		17.8,8.5 19.8,8.5 	"/>
	<path class="st4" d="M12.7,13.9c-0.4-0.3-1.3-0.9-1.3-1.3c0-0.5,0.1-0.7,0.9-1.3c0.7-0.6,1.3-1.3,1.3-2.3c0-1-0.4-2-1.2-2.4h1.1
		l1-1c0,0-3.2,0-4.3,0c-2.2,0-4,1.6-4,3.4c0,1.8,1.2,3.3,3.3,3.3c0.1,0,0.3,0,0.4,0c-0.1,0.3-0.2,0.5-0.2,0.8c0,0.5,0.3,0.8,0.6,1.1
		c-0.3,0-0.5,0-0.8,0c-2.5,0-4.3,1.7-4.3,3.4c0,1.6,2.1,2.6,4.6,2.6c2.9,0,4.6-1.6,4.6-3.2C14.4,15.6,14.1,14.9,12.7,13.9z
		 M10.2,11.5c-1.2,0-2.3-1.1-2.5-2.6C7.6,7.3,8.4,6.2,9.5,6.2c1.2,0,2.2,1.3,2.4,2.8C12.1,10.5,11.4,11.5,10.2,11.5z M9.8,19.4
		c-1.7,0-3-1.1-3-2.4c0-1.3,1.5-2.4,3.2-2.4c0.4,0,0.8,0.1,1.1,0.2c0.9,0.7,1.7,1.1,1.9,1.8c0,0.2,0.1,0.3,0.1,0.5
		C13.1,18.4,12.2,19.4,9.8,19.4z"/>
</g>
</svg>
