<?xml version="1.0" encoding="utf-8"?>
<!-- Generator: Adobe Illustrator 19.2.1, SVG Export Plug-In . SVG Version: 6.00 Build 0)  -->
<svg version="1.1" id="Laag_1" xmlns="http://www.w3.org/2000/svg" xmlns:xlink="http://www.w3.org/1999/xlink" x="0px" y="0px"
	 viewBox="0 0 25 25" style="enable-background:new 0 0 25 25;" xml:space="preserve">
<style type="text/css">
	.st0{fill:none;stroke:#FFFFFF;stroke-miterlimit:10;}
	.st1{fill:#FFFFFF;}
</style>
<circle class="st0" cx="12.5" cy="12.5" r="12"/>
<path id="twitter-4-icon_1_" class="st1" d="M17.3,10c0.2,3.5-2.4,7.3-7,7.3c-1.4,0-2.7-0.4-3.8-1.1c1.3,0.2,2.6-0.2,3.6-1
	c-1.1,0-2-0.7-2.3-1.7c0.4,0.1,0.8,0.1,1.1,0c-1.2-0.2-2-1.3-2-2.4c0.3,0.2,0.7,0.3,1.1,0.3C7,10.6,6.7,9.1,7.4,8
	c1.2,1.5,3,2.5,5.1,2.6c-0.4-1.5,0.8-3,2.4-3c0.7,0,1.3,0.3,1.8,0.8c0.6-0.1,1.1-0.3,1.6-0.6c-0.2,0.6-0.6,1.1-1.1,1.4
	c0.5-0.1,1-0.2,1.4-0.4C18.2,9.2,17.8,9.7,17.3,10z"/>
</svg>
