<?xml version="1.0" encoding="utf-8"?>
<!-- Generator: Adobe Illustrator 19.1.0, SVG Export Plug-In . SVG Version: 6.00 Build 0)  -->
<svg version="1.1" id="Laag_1" xmlns="http://www.w3.org/2000/svg" xmlns:xlink="http://www.w3.org/1999/xlink" x="0px" y="0px"
	 viewBox="0 0 259 266.6" style="enable-background:new 0 0 259 266.6;" xml:space="preserve">
<style type="text/css">
	.st0{fill:#3F717A;}
	.st1{fill:#E9AC8B;}
	.st2{fill:#F3BC99;}
	.st3{fill:none;}
	.st4{fill:#F9F9F9;}
	.st5{fill:#CCD6D6;}
	.st6{fill:#F7F9F9;}
	.st7{fill:#2D3A3A;}
	.st8{fill:#354746;}
	.st9{fill:none;stroke:#F7F9F9;stroke-miterlimit:10;}
</style>
<circle class="st0" cx="129.5" cy="137" r="129.5"/>
<polygon class="st1" points="129.4,201.1 100.4,174.4 100.4,140.9 158.4,140.9 158.4,174.4 "/>
<path class="st2" d="M75.3,91.7c-0.3-8.3,6.1-2.5,6.1-2.5s-13-66,48.2-66c61.2,0,48.2,66,48.2,66s6.4-5.8,6.1,2.5
	c-0.3,8.3-2.2,14.1-2.2,14.1s-0.8,9.7-9.7,14.1c0,0-1.7,16.6-8.6,23.6c-6.9,6.9-18,22.7-33.8,22.2c-15.8,0.5-26.9-15.2-33.8-22.2
	c-6.9-6.9-8.6-23.6-8.6-23.6c-8.9-4.4-9.7-14.1-9.7-14.1S75.6,100,75.3,91.7z"/>
<path class="st0" d="M141.9,38.4c10.5,1.2,19.4,9.2,24.2,18.6s6.3,20.2,7.3,30.8c0.5,4.9,0.8,9.8,0.7,14.7
	c6.2-12.1,10.7-25.3,10.9-38.9c0,0-1.8-31-7.9-40.5C171,13.6,155.3-6,142.6,2.6c0,0-21-8.6-47.9,5.2c0,0-5.8,3.4-8.4,5.7
	c-2.6,2.3-7.5,22.6-7.5,22.6c-3.6,6.8-6.1,14.2-6.5,21.9C71.6,72,78.1,85,84.4,97.4c2.1-13.3,3.9-26.7,5.5-40
	c14,1.1,27.1-6.2,39.3-13.2c-2.2,4.1-5.6,7.7-9.6,10.1c9.2-2.2,17.4-8,22.7-15.7"/>
<path d="M86.3,13.6"/>
<g>
	<path class="st3" d="M67.2,182.4L67.2,182.4l17.5-6.5l15.1-12.4l0-1.1c0,0,0,0,0,0.1l0-3.4c0,0,30,39.4,59,0v3.3v1l15.2,12.5
		l17.5,6.5l0,0l50.3,18.6v0.6c11-19,17.2-41.1,17.2-64.6c0-71.5-58-129.5-129.5-129.5S0,65.5,0,137c0,23.3,6.1,45.1,16.9,64
		L67.2,182.4z"/>
	<polygon class="st3" points="100,166.7 100,166.7 99.9,177.9 100.1,177.9 100,169.5 	"/>
	<polygon class="st3" points="158.8,177.8 158.8,177.9 158.8,177.9 158.8,163.4 158.8,166.7 	"/>
	<polygon class="st4" points="125.7,178.8 125.2,179.4 125.2,179.4 	"/>
	<path class="st4" d="M125.5,196.4L125.5,196.4l-4.9-9.2l-20.3,20.2l-0.2-20.9l-0.1-5.3l0-0.3l0-3.1h-0.1l-0.1,85.2
		c6.6,1.5,13.3,2.6,20.3,3.1C119,208.6,125.5,196.4,125.5,196.4z"/>
	<path class="st4" d="M158.8,177.9v3.3v22.7v3.3L139.1,187l-0.7-0.7l-2.3,8.1l-0.1,0c4.4,1.7,3.9,46.6,3.3,71.8
		c6.7-0.5,13.3-1.5,19.6-3L158.8,177.9L158.8,177.9z"/>
	<path class="st5" d="M99.9,162.5C99.9,162.4,99.9,162.4,99.9,162.5l0,1l0,0L99.9,162.5z"/>
	<polygon class="st5" points="138.4,186.3 139.1,187 158.8,207.2 158.8,203.9 139.1,183.7 	"/>
	<polygon class="st5" points="125.2,179.4 125.2,179.4 100.4,204 100.2,183.2 100,177.7 99.8,166.2 99.8,166.9 99.9,166.9 
		99.9,169.6 100.1,178 100.1,181 100.1,181.3 100.2,186.5 100.4,207.4 120.6,187.2 119.5,185 	"/>
	<path class="st6" d="M100,163.4l0,2.8l0.2,11.5l0.1,5.5l0.2,20.9l24.8-24.7l0.5-0.5l8.7,0.1l4.7,4.8l0,0l19.7,20.2v-22.7v-3.3v-0.1
		v-11v-3.3v-1V159c-29,39.5-59,0-59,0l0,3.4L100,163.4L100,163.4z"/>
	<path class="st0" d="M139.1,183.7l-4.7-4.8l-8.7-0.1l-0.5,0.5l-5.7,5.6l1.2,2.2l4.9,9.2l10.4-2c0,0,0,0,0,0l0.1,0l2.3-8.1
		L139.1,183.7L139.1,183.7z"/>
	<path class="st0" d="M136,194.4C136,194.4,136,194.4,136,194.4l-10.4,2l-0.1,0c0,0-6.5,12.2-5.4,69.8c3.1,0.2,6.3,0.3,9.4,0.3
		c3.3,0,6.6-0.1,9.8-0.4C139.9,241,140.3,196.1,136,194.4z"/>
	<path class="st7" d="M16.9,201c15.2,26.7,39.7,47.5,69.1,58l-18.8-76.7L16.9,201z"/>
	<path class="st8" d="M99.8,166.7v-0.5l0.1-2.8l0,0l0,0l-15.6,12.2l-18.1,6.2h0l19.4,76.9c4.7,1.6,9.4,3.1,14.3,4.2l0-85.2
		L99.8,166.7z"/>
	<path class="st7" d="M191.6,182.4l-18.8,76.7c29.3-10.4,53.7-31,69-57.5v-0.6L191.6,182.4z"/>
	<path class="st8" d="M192.3,182.4l-17.9-6.5l-15.6-12.5l0,14.5l0.1,85.3c4.8-1.1,9.5-2.5,14.2-4.1L192.3,182.4L192.3,182.4z"/>
</g>
<circle class="st0" cx="109" cy="98.4" r="3.8"/>
<circle class="st0" cx="149" cy="98.4" r="3.8"/>
<g>
	<path class="st0" d="M102.8,90.2c0,0,0.1-0.1,0.1-0.2c0.1-0.1,0.2-0.3,0.4-0.5c0.4-0.4,0.9-0.9,1.5-1.3c0.6-0.4,1.3-0.8,2.1-1
		c0.4-0.1,0.8-0.2,1.2-0.3c0.4-0.1,0.8-0.1,1.2-0.1c0.4,0,0.8,0,1.2,0.1c0.4,0.1,0.8,0.2,1.2,0.3c0.8,0.2,1.5,0.6,2.1,1
		c0.6,0.4,1.1,0.9,1.5,1.3c0.2,0.2,0.3,0.4,0.4,0.5c0.1,0.1,0.1,0.2,0.1,0.2v0.4c0,0-0.8,0.1-2,0.1c-1.2,0.1-2.8,0.1-4.5,0.1
		c-1.6,0-3.2,0-4.5-0.1c-1.2-0.1-2-0.1-2-0.1V90.2z"/>
</g>
<g>
	<path class="st0" d="M142.8,90.2c0,0,0.1-0.1,0.1-0.2c0.1-0.1,0.2-0.3,0.4-0.5c0.4-0.4,0.9-0.9,1.5-1.3c0.6-0.4,1.3-0.8,2.1-1
		c0.4-0.1,0.8-0.2,1.2-0.3c0.4-0.1,0.8-0.1,1.2-0.1c0.4,0,0.8,0,1.2,0.1c0.4,0.1,0.8,0.2,1.2,0.3c0.8,0.2,1.5,0.6,2.1,1
		c0.6,0.4,1.1,0.9,1.5,1.3c0.2,0.2,0.3,0.4,0.4,0.5c0.1,0.1,0.1,0.2,0.1,0.2v0.4c0,0-0.8,0.1-2,0.1c-1.2,0.1-2.8,0.1-4.5,0.1
		c-1.6,0-3.2,0-4.5-0.1c-1.2-0.1-2-0.1-2-0.1V90.2z"/>
</g>
<line class="st9" x1="100.3" y1="163.5" x2="100.3" y2="202.9"/>
</svg>
