<?xml version="1.0" encoding="utf-8"?>
<!-- Generator: Adobe Illustrator 19.1.0, SVG Export Plug-In . SVG Version: 6.00 Build 0)  -->
<svg version="1.1" id="Laag_1" xmlns="http://www.w3.org/2000/svg" xmlns:xlink="http://www.w3.org/1999/xlink" x="0px" y="0px"
	 viewBox="0 0 259 261.6" style="enable-background:new 0 0 259 261.6;" xml:space="preserve">
<style type="text/css">
	.st0{fill:#EC6E6B;}
	.st1{fill:#E9AC8B;}
	.st2{fill:#F3BC99;}
	.st3{fill:none;stroke:#896555;stroke-miterlimit:10;}
	.st4{fill:none;}
	.st5{fill:#CE5151;}
	.st6{fill:#423E3E;}
	.st7{fill:#544949;}
</style>
<g>
	<circle class="st0" cx="129.5" cy="132" r="129.5"/>
	<polygon class="st1" points="129.6,197.1 100.4,170.4 100.4,136.9 158.9,136.9 158.9,170.4 	"/>
	<path class="st2" d="M75.3,87.7c-0.3-8.3,6.1-2.5,6.1-2.5s-13-66,48.2-66c61.2,0,48.2,66,48.2,66s6.4-5.8,6.1,2.5
		c-0.3,8.3-2.2,14.1-2.2,14.1s-0.8,9.7-9.7,14.1c0,0-1.7,16.6-8.6,23.6c-6.9,6.9-18,22.7-33.8,22.2c-15.8,0.5-26.9-15.2-33.8-22.2
		c-6.9-6.9-8.6-23.6-8.6-23.6c-8.9-4.4-9.7-14.1-9.7-14.1S75.6,96,75.3,87.7z"/>
	<path class="st0" d="M116.4,38.4c-6.1,0.7-11.5,3.6-16,7.7C97,49.3,94.2,53,92.2,57c-4.9,9.4-3.1,19.8-4.1,30.4
		c-0.5,4.9-4.1,10.2-4,15.1c-6.2-12.1-10.7-25.3-10.9-38.9c0,0,1.8-31,7.9-40.5S103-6,115.7,2.6c0,0,21-8.6,47.9,5.2
		c0,0,5.8,3.4,8.4,5.7c2.6,2.3,7.5,22.6,7.5,22.6c3.6,6.8,6.1,14.2,6.5,21.9c0.6,13.9-5.9,26.9-12.2,39.3c-0.5-3-3.4-6.9-3.8-9.9
		c-1.5-10.3-0.5-19.8-1.7-30.1c-14,1.1-27.1-6.2-39.3-13.2c2.2,4.1,5.6,7.7,9.6,10.1c-9.2-2.2-17.4-8-22.7-15.7"/>
	<ellipse class="st3" cx="41.8" cy="98.5" rx="0.3" ry="0"/>
	<path d="M86.3,9.6"/>
	<path class="st0" d="M173.4,92L173.4,92c-1.1,0-1.9,0.8-1.9,1.8V94c-0.1,7.9-8.1,21.2-11.2,25.7c-3.2,4.6-7.4,6.7-9.9,7.6
		c-0.6-4-2.6-11.9-8.6-14.4l-0.2-0.1c-3.4-1.4-7.6-2.2-11.9-2.2c-4.3,0-8.5,0.8-11.9,2.2l-0.2,0.1c-6,2.5-8,10.5-8.6,14.4
		c-2.5-0.9-6.7-3-9.9-7.6C96,115.2,87.9,101.9,87.9,94v-0.2c0-1-0.8-1.8-1.9-1.8h0c-1,0-1.9,0.8-1.9,1.8v29.4
		c0,24.2,20.3,44,45.3,44.1h0.3c12.2,0,23.6-4.5,32.2-12.8c8.6-8.2,13.4-19.2,13.4-30.8l0-29.7c0-0.1,0-0.2,0-0.3
		C175.3,92.8,174.5,92,173.4,92L173.4,92z M140.1,142.2c-0.8,1-1.9,1.4-3.3,1.5c-0.1,0-0.2,0-0.3,0c-1.3,0-1.9-0.3-2.1-0.5
		c-0.5-0.9,0.9-3.9,2.4-5.9c0.4-0.6,0.5-1.3,0.2-1.9c-0.3-0.6-0.9-1-1.6-1h-11.4c-0.7,0-1.3,0.4-1.6,1c-0.3,0.6-0.2,1.4,0.2,1.9
		c1.5,2,2.9,5,2.5,5.9c-0.1,0.3-0.7,0.5-2.1,0.5c-0.1,0-0.2,0-0.3,0c-1.4,0-2.5-0.5-3.3-1.5c-2.2-2.6-1.9-8.2-1.6-10.2
		c0,0,0-0.1,0-0.1c0-0.1,0.7-5.9,4-7.1c3.4-1.2,6.5-2.6,7.9-3.3c1.4,0.7,4.5,2.1,7.9,3.3c2.8,0.9,3.8,5.4,4,7.1c0,0,0,0.1,0,0.1
		C142,133.9,142.3,139.5,140.1,142.2L140.1,142.2z M140.1,142.2"/>
	<g>
		<path class="st4" d="M85.2,171.9l15.2-12.5l0,10.9c8.5,8.3,33.6,27.9,58.5-0.9l0-10l15.2,12.5l67.6,25
			c11.1-19.1,17.4-41.2,17.4-64.9c0-71.5-58-129.5-129.5-129.5S0,60.5,0,132c0,23.7,6.4,45.9,17.4,64.9L85.2,171.9z"/>
		<path class="st5" d="M100.4,170.3l-0.1,87.9c9.4,2.2,19.2,3.3,29.3,3.3c10.1,0,20-1.2,29.5-3.4l-0.1-88.8
			C133.9,198.2,108.9,178.7,100.4,170.3z"/>
		<path class="st6" d="M94.9,171.9l5.5-12.5l-15.2,12.5L17.4,197c15.9,27.3,41.5,48.3,72,58.3l-8.5-72.7L94.9,171.9z"/>
		<path class="st7" d="M100.4,159.4l-5.5,12.5l-14,10.7l8.5,72.7c3.5,1.2,7.1,2.2,10.8,3l0.1-87.9L100.4,159.4z"/>
		<path class="st6" d="M158.9,159.4l5.5,12.5l14,10.7l-8.5,72.6c30.5-10,56-30.9,71.8-58.2l-67.6-25L158.9,159.4z"/>
		<path class="st7" d="M164.3,171.9l-5.5-12.5l0,10l0.1,88.8c3.7-0.9,7.3-1.9,10.8-3l8.5-72.6L164.3,171.9z"/>
	</g>
	<circle class="st0" cx="109.8" cy="90.3" r="3.8"/>
	<circle class="st0" cx="149.8" cy="90.3" r="3.8"/>
	<g>
		<path class="st0" d="M103.8,82.1c0,0,0-0.1,0.1-0.2c0.1-0.1,0.2-0.3,0.4-0.5c0.4-0.4,0.8-0.9,1.5-1.3c0.6-0.4,1.3-0.8,2.1-1
			c0.4-0.1,0.8-0.2,1.2-0.3c0.4-0.1,0.8-0.1,1.2-0.1c0.4,0,0.8,0,1.2,0.1c0.4,0.1,0.8,0.2,1.2,0.3c0.8,0.2,1.5,0.6,2.1,1
			c0.6,0.4,1.1,0.9,1.5,1.3c0.2,0.2,0.4,0.4,0.5,0.5c0.1,0.1,0.2,0.2,0.2,0.2v0.4c0,0-0.9,0.1-2.1,0.1c-1.2,0.1-2.9,0.1-4.5,0.1
			c-1.6,0-3.2,0-4.4-0.1c-1.2-0.1-2-0.1-2-0.1V82.1z"/>
	</g>
	<g>
		<path class="st0" d="M143.8,82.1c0,0,0-0.1,0.1-0.2c0.1-0.1,0.2-0.3,0.4-0.5c0.4-0.4,0.8-0.9,1.5-1.3c0.6-0.4,1.3-0.8,2.1-1
			c0.4-0.1,0.8-0.2,1.2-0.3c0.4-0.1,0.8-0.1,1.2-0.1c0.4,0,0.8,0,1.2,0.1c0.4,0.1,0.8,0.2,1.2,0.3c0.8,0.2,1.5,0.6,2.1,1
			c0.6,0.4,1.1,0.9,1.5,1.3c0.2,0.2,0.4,0.4,0.5,0.5c0.1,0.1,0.2,0.2,0.2,0.2v0.4c0,0-0.9,0.1-2.1,0.1c-1.2,0.1-2.9,0.1-4.5,0.1
			c-1.6,0-3.2,0-4.4-0.1c-1.2-0.1-2-0.1-2-0.1V82.1z"/>
	</g>
</g>
</svg>
